<?xml version="1.0" standalone="no"?>
<!DOCTYPE svg PUBLIC "-//W3C//DTD SVG 1.1//EN" "http://www.w3.org/Graphics/SVG/1.1/DTD/svg11.dtd" >
<svg xmlns="http://www.w3.org/2000/svg">
<metadata></metadata>
<defs>
<font id="oceaniaregular" horiz-adv-x="1024" >
<font-face units-per-em="2048" ascent="1556" descent="-492" />
<missing-glyph horiz-adv-x="491" />
<glyph horiz-adv-x="2048" />
<glyph horiz-adv-x="2048" />
<glyph unicode="&#xd;" horiz-adv-x="2048" />
<glyph unicode=" "  horiz-adv-x="491" />
<glyph unicode="&#x09;" horiz-adv-x="491" />
<glyph unicode="&#xa0;" horiz-adv-x="491" />
<glyph unicode="!" horiz-adv-x="624" d="M156 135q0 70 42 109t113 39t114.5 -38t43.5 -110q0 -71 -41.5 -110t-116.5 -39q-72 0 -113.5 39t-41.5 110zM188 969v569h248v-569l-26 -473h-197z" />
<glyph unicode="&#x22;" horiz-adv-x="866" d="M100 1542h265l-21 -565h-223zM502 1542h264l-21 -565h-223z" />
<glyph unicode="#" horiz-adv-x="1200" d="M66 264l43 242h196l64 362h-195l43 242h197l43 244h157l-43 -244h217l46 244h157l-45 -244h189l-43 -242h-189l-63 -362h186l-43 -242h-188l-45 -264h-160l47 264h-217l-47 -264h-158l45 264h-194zM463 506h219l63 362h-217z" />
<glyph unicode="$" horiz-adv-x="1236" d="M125.5 950q-15.5 92 5.5 215q22 111 92.5 184t167.5 101t211 18q84 -8 199 -32l67 202h101l-72 -219q81 -10 141 -2q-4 -38 -13 -114t-15 -134q-71 -13 -189 21l-116 -350q232 -43 332.5 -179.5t68.5 -328.5q-31 -191 -150 -271.5t-329 -80.5q-89 0 -199 28l-63 -194 h-103l74 219q-117 28 -199 26q17 156 29 244q90 7 246 -41l120 361q-114 20 -197 60.5t-138.5 107.5t-71 159zM389 1092q-17 -100 38 -155t181 -81l121 363l-28 7t-33 7q-114 24 -187.5 -10t-91.5 -131zM504 233q63 -16 94 -20q94 -14 158.5 22t81.5 123q20 103 -34 162.5 t-177 85.5z" />
<glyph unicode="%" horiz-adv-x="1792" d="M90 954v62q0 98 31.5 183t101.5 142.5t168 57.5h33q97 0 167 -57.5t102 -142.5t32 -183v-62q0 -97 -32 -182t-102.5 -143t-168.5 -58h-31q-74 0 -133 33.5t-95 89t-54.5 122.5t-18.5 138zM268 952q1 -53 12.5 -98t41.5 -79t75 -34h21q45 0 75 34t41.5 79t12.5 98v2v64 q-1 39 -8 74t-21 66.5t-40 51t-60 21.5h-21q-34 -2 -60 -21.5t-40 -51t-21 -66.5t-8 -74v-2v-62v-2zM545 0l573 1430h160l-573 -1430h-160zM1071 367v61q0 98 31.5 183t101.5 142.5t168 57.5h33q97 0 167 -57.5t102 -142.5t32 -183v-61q0 -97 -32 -182t-102.5 -143 t-168.5 -58h-31q-74 0 -133 33.5t-95 89t-54.5 122.5t-18.5 138zM1249 365q1 -53 12.5 -98t41.5 -79t75 -34h21q45 0 75 34t41.5 79t12.5 98v2v63q-1 39 -8 74t-21 66.5t-40 51t-60 21.5h-21q-34 -2 -60 -21.5t-40 -51t-21 -66.5t-8 -74v-2v-61v-2z" />
<glyph unicode="&#x26;" horiz-adv-x="1400" d="M73.5 316q-24.5 109 0.5 212t97 196t179 148q-70 89 -107.5 165.5t-37.5 156.5q0 159 113.5 257.5t271.5 98.5q156 0 267.5 -96.5t111.5 -253.5q0 -226 -273 -389q56 -67 183 -223q3 8 16 41t18 45t17.5 40.5t22.5 44t25 38t32 40.5t37 35q86 70 190 70q48 0 129 -18 v-230q-4 1 -24 5t-31.5 6t-32.5 4t-36 0.5t-32.5 -7.5t-31.5 -16q-32 -27 -54 -82q-15 -31 -36.5 -96.5t-36.5 -99.5q42 -47 164 -190.5t188 -217.5h-313q-31 37 -84 101t-76 92q-185 -213 -422 -213q-98 0 -185.5 37t-148.5 106q-76 84 -100.5 193zM322 408.5 q10 -60.5 53 -107.5q55 -62 130.5 -67.5t144.5 33.5t120 106q-41 46 -144.5 169.5t-129.5 151.5q-58 -23 -101.5 -69t-63 -101t-9.5 -115.5zM455 1192q0 -98 92 -201q45 26 68 41t51.5 40.5t40.5 56.5t12 71q0 54 -38 95t-91 38q-55 1 -95 -42t-40 -99z" />
<glyph unicode="'" horiz-adv-x="464" d="M100 1542h265l-21 -565h-223z" />
<glyph unicode="(" horiz-adv-x="735" d="M133 625q0 238 76 477t223 440h232q-142 -208 -212.5 -444t-70.5 -473q0 -233 70.5 -466t212.5 -444h-232q-146 194 -222.5 432.5t-76.5 477.5z" />
<glyph unicode=")" horiz-adv-x="735" d="M72 -285q142 207 212 444t70 474q0 233 -70 465.5t-212 443.5h231q146 -194 222.5 -432t76.5 -477q0 -238 -76 -477.5t-223 -440.5h-231z" />
<glyph unicode="*" horiz-adv-x="901" d="M31 1165l67 205l258 -102l-16 274h219l-14 -274l256 102l67 -205l-270 -71l180 -211l-178 -127l-149 231l-150 -231l-180 127l182 211z" />
<glyph unicode="+" horiz-adv-x="1085" d="M92 434v221h340v408h221v-408h338v-221h-338v-409h-221v409h-340z" />
<glyph unicode="," horiz-adv-x="583" d="M43 -233q87 55 127.5 91t51.5 62.5t11 69.5v37h-18q-38 0 -64 29.5t-26 80.5q0 65 42.5 106.5t117.5 41.5q180 0 180 -215q0 -143 -66.5 -250.5t-222.5 -202.5z" />
<glyph unicode="-" horiz-adv-x="512" d="M47 440v207h418v-207h-418z" />
<glyph unicode="." horiz-adv-x="583" d="M133 135q0 71 43 110.5t115 39.5t116 -38t44 -112q0 -71 -42 -111t-118 -40q-73 0 -115.5 40t-42.5 111z" />
<glyph unicode="/" horiz-adv-x="729" d="M-39 -285l639 1786h219l-641 -1786h-217z" />
<glyph unicode="0" horiz-adv-x="1363" d="M129 633v33q0 150 44.5 274t120.5 205t177 125.5t215 44.5q113 0 212 -44t172.5 -125.5t116 -205.5t42.5 -276v-31q0 -286 -154 -471t-389 -185q-110 0 -212.5 50.5t-178.5 136.5t-121.5 209t-44.5 260zM430 633q0 -65 13 -129t40.5 -122.5t78 -95t116.5 -36.5 q72 0 123.5 35.5t77 95t36.5 121t11 131.5v31q0 48 -6 95.5t-22 100.5t-41.5 92.5t-69 65.5t-99.5 26q-58 0 -104 -26t-74 -66t-47 -92t-26 -100.5t-7 -95.5v-31z" />
<glyph unicode="1" horiz-adv-x="950" d="M55 961l398 356l297 -80v-1237h-304v987l-235 -225z" />
<glyph unicode="2" horiz-adv-x="1206" d="M117 244q121 111 585 549q58 55 69.5 120t-30.5 111q-46 46 -108.5 43.5t-122.5 -47.5q-112 -87 -199 -178l-192 200q227 244 409 285q104 23 219.5 -1t194.5 -91q139 -125 138 -297.5t-126 -300.5q-207 -210 -379 -375l498 2v-264h-880z" />
<glyph unicode="3" horiz-adv-x="1241" d="M74 25l194 231q47 -90 137.5 -149.5t190.5 -59.5q85 0 139.5 49t63.5 127q10 93 -51.5 155t-159.5 60h-187v242h181q79 -1 134 51.5t58 130.5q3 83 -47 138t-135 55q-88 0 -157 -46t-154 -135l-185 242q241 211 496 211q127 0 237.5 -52.5t179 -150.5t68.5 -219 q0 -105 -48.5 -193.5t-139.5 -140.5q94 -55 152.5 -152.5t58.5 -205.5q0 -106 -42.5 -191.5t-114 -139t-161 -81.5t-188.5 -28q-157 0 -301 68t-219 184z" />
<glyph unicode="4" horiz-adv-x="1327" d="M78 324l409 749q22 36 96.5 119.5t123.5 132.5h344q-36 -39 -220 -262q-105 -175 -254.5 -455.5t-162.5 -304.5h356v428h293v-428h182v-272h-182v-244h-293v244h-565z" />
<glyph unicode="5" horiz-adv-x="1320" d="M158 82l266 143q29 -79 90.5 -125.5t153.5 -46.5q105 0 167 78.5t60 190.5q-2 114 -56 181.5t-157 67.5q-136 0 -219 -143l-275 66v827h934l-73 -268h-560v-377q77 85 145.5 122.5t168.5 37.5q124 0 217 -72t140.5 -192t47.5 -269q0 -219 -150.5 -365.5t-381.5 -146.5 q-187 0 -311 75t-207 216z" />
<glyph unicode="6" horiz-adv-x="1329" d="M121 555v360q0 197 68 346t204 230q149 80 353.5 68.5t318.5 -89.5l-100 -258h-2q-43 30 -73 47.5t-78 33t-95 14.5q-128 -3 -213 -81.5t-76 -209.5v-111q29 35 52 57.5t60.5 49t86.5 40t108 13.5q118 2 209.5 -40.5t147 -119t83.5 -173t29 -208.5q1 -156 -59.5 -278 t-184.5 -195.5t-294 -73.5q-259 0 -402 159t-143 419zM424 520q0 -143 64.5 -215t177.5 -72q112 0 175.5 71.5t63.5 215.5q0 137 -64.5 214t-174.5 77t-176 -78t-66 -213z" />
<glyph unicode="7" horiz-adv-x="1249" d="M59 956q21 40 73.5 135.5t60.5 112.5q35 69 87 92t162 21h678q13 -32 42.5 -107.5t43.5 -109.5l-633 -1303h-342l637 1247h-417q-24 0 -41 -23.5t-39 -74.5l-47 -102z" />
<glyph unicode="8" horiz-adv-x="1396" d="M139 459q0 69 11.5 121t38.5 93t56 69t77 65q-70 64 -105 139t-35 182q0 185 150 304.5t377 119.5q228 0 372 -120.5t144 -303.5q0 -106 -37 -181t-109 -140q45 -34 73.5 -61t59.5 -69t46.5 -97t15.5 -123q0 -108 -49 -198.5t-129 -149t-180.5 -91t-206.5 -32.5 q-85 0 -167.5 20t-155.5 60t-128 96t-87 132.5t-32 164.5zM451 463q0 -93 67.5 -149t186.5 -56q123 0 189.5 55.5t66.5 147.5q0 93 -64.5 151t-165.5 58h-55q-103 0 -164 -58t-61 -149zM477 1098q0 -87 55.5 -137t151.5 -50h41q90 0 145.5 50.5t55.5 134.5q0 92 -58.5 143 t-162.5 51q-109 0 -168.5 -50.5t-59.5 -141.5z" />
<glyph unicode="9" horiz-adv-x="1325" d="M121 827q-1 156 59.5 278t184.5 195.5t294 73.5q259 0 402 -158.5t143 -418.5v-361q0 -197 -68 -345.5t-204 -229.5q-149 -80 -353.5 -69t-318.5 89l100 258h2q42 -29 73 -47t78.5 -33t94.5 -14q128 3 213 81.5t76 209.5v110q-28 -34 -51.5 -57t-61 -49t-86.5 -39.5 t-108 -13.5q-118 -2 -209.5 40.5t-147 118.5t-83.5 172.5t-29 208.5zM420 831q0 -137 64.5 -213.5t174.5 -76.5t176 77.5t66 212.5q0 143 -64.5 215t-177.5 72q-112 0 -175.5 -71.5t-63.5 -215.5z" />
<glyph unicode=":" horiz-adv-x="583" d="M133 135q0 71 43 110.5t115 39.5t116 -38t44 -112q0 -71 -42 -111t-118 -40q-73 0 -115.5 40t-42.5 111zM133 934q0 71 43 110t115 39t116 -37.5t44 -111.5q0 -71 -42 -111.5t-118 -40.5q-73 0 -115.5 40.5t-42.5 111.5z" />
<glyph unicode=";" horiz-adv-x="583" d="M43 -233q87 55 127.5 91t51.5 62.5t11 69.5v37h-18q-38 0 -64 29.5t-26 80.5q0 65 42.5 106.5t117.5 41.5q180 0 180 -215q0 -143 -66.5 -250.5t-222.5 -202.5zM133 934q0 71 43 110t115 39t116 -37.5t44 -111.5q0 -71 -42 -111.5t-118 -40.5q-73 0 -115.5 40.5 t-42.5 111.5z" />
<glyph unicode="&#x3c;" horiz-adv-x="1085" d="M162 545l487 542h273v-24l-467 -514l467 -524v-25h-273z" />
<glyph unicode="=" horiz-adv-x="1085" d="M129 188v215h827v-215h-827zM129 692v217h827v-217h-827z" />
<glyph unicode="&#x3e;" horiz-adv-x="1085" d="M162 0v25l467 516l-467 522v24h274l486 -542l-486 -545h-274z" />
<glyph unicode="?" horiz-adv-x="946" d="M98 1395q152 155 387 155q169 0 273 -96t104 -254q0 -63 -19.5 -117t-51 -91.5t-69 -70t-75.5 -59t-69.5 -52.5t-52.5 -57t-23 -65l-13 -192h-229l-4 239v13q0 63 33.5 117.5t82 92t97 70.5t85 67.5t40.5 67.5q2 6 2 21q0 60 -40.5 97.5t-106.5 37.5q-63 0 -129.5 -43 t-108.5 -109zM211 139q0 71 46 112.5t118 41.5q71 0 117.5 -40.5t46.5 -113.5q0 -69 -45 -111t-121 -42q-71 0 -116.5 41.5t-45.5 111.5z" />
<glyph unicode="@" horiz-adv-x="1916" d="M104 504q0 241 69.5 435t193 321t292 194.5t367.5 67.5q177 0 320.5 -45.5t247 -134t160 -226.5t56.5 -317q0 -126 -30.5 -233t-81 -179.5t-116 -123.5t-133.5 -74t-136 -23q-176 0 -232 110h-10q-87 -59 -148 -84.5t-118 -25.5q-118 0 -188 75t-70 226 q0 254 116.5 415.5t288.5 161.5q129 0 226 -63l10 49h213l-109 -612q-4 -24 -4 -39q0 -51 64 -51q37 0 74 16.5t73 53t63.5 90t44.5 134t17 177.5q0 553 -598 553q-162 0 -296 -56.5t-230.5 -162.5t-149.5 -267t-53 -362q0 -324 140.5 -479.5t432.5 -155.5q67 0 166.5 18.5 t169.5 44.5l19 -174q-180 -59 -369 -59q-371 0 -561.5 203.5t-190.5 601.5zM774 481q0 -145 119 -145q69 0 182 65l80 445q-79 43 -151 43q-94 0 -162 -118t-68 -290z" />
<glyph unicode="A" horiz-adv-x="1398" d="M20 0l523 1538h317l516 -1538h-319q-6 18 -45 147t-84 267h-449l-139 -414h-320zM541 659h319l-145 492l-13 125l-12 -125z" />
<glyph unicode="B" horiz-adv-x="1429" d="M195 0v1538h573q117 0 212 -33t154 -88.5t90.5 -123t32.5 -140.5v-9q1 -68 -13 -124q-14 -60 -41 -103.5t-55.5 -72t-64.5 -53.5q41 -23 77.5 -53t73 -75t58 -107.5t21.5 -133.5q0 -186 -129 -304t-367 -118h-622zM496 258h276q105 0 162 52.5t57 148.5q0 80 -58.5 131 t-160.5 51h-276v-383zM496 891h252q92 0 150 54.5t58 144.5q0 81 -60.5 134.5t-150.5 53.5h-249v-387z" />
<glyph unicode="C" horiz-adv-x="1306" d="M119 668v192v18q-1 121 37 235q40 122 115 216.5t187.5 153.5t243.5 63q20 1 40 1q130 1 248 -45q136 -52 235 -161l-213 -215q-29 29 -38.5 38t-35 31.5t-42 30t-43.5 19t-57 15.5t-67 4q-100 0 -172 -57.5t-104.5 -147t-32.5 -199.5v-192q5 -183 83.5 -292t237.5 -112 q82 0 150.5 40.5t144.5 115.5l213 -215q-109 -110 -251 -171q-124 -53 -257 -53q-20 0 -39 1q-175 6 -312 102.5t-207 250.5q-64 142 -64 305v28z" />
<glyph unicode="D" horiz-adv-x="1511" d="M197 0v1538h589q138 0 251 -54t187 -148t114 -220t40 -272v-182q0 -132 -40 -251t-114 -211t-188 -146t-252 -54h-587zM500 272h278q76 0 133.5 32t90.5 88t49 123.5t16 146.5v182q-6 105 -21.5 177.5t-47.5 130.5t-87 86t-135 28h-276v-994z" />
<glyph unicode="E" horiz-adv-x="1257" d="M195 0v1538h956v-272h-653v-361h583v-260h-583v-373h630l39 -272h-972z" />
<glyph unicode="F" horiz-adv-x="1208" d="M197 0v1538h927v-270h-624v-357h557v-262h-557v-649h-303z" />
<glyph unicode="G" horiz-adv-x="1517" d="M135 618v291q1 144 54 272t142 218t211 143q119 51 248 51h5q139 0 276.5 -42.5t231.5 -129.5l-187 -237q-62 63 -149.5 94t-173.5 31q-143 0 -249 -110.5t-106 -289.5v-284q0 -186 92 -285.5t240 -99.5q133 0 225 83.5t92 225.5v78h-286l-47 262h635v-299 q0 -127 -40.5 -237t-118.5 -194.5t-203.5 -133t-285.5 -48.5q-173 0 -312.5 86.5t-216.5 233t-77 321.5z" />
<glyph unicode="H" horiz-adv-x="1574" d="M197 0v1538h301v-659h594v659h301v-1538h-301v616h-594v-616h-301z" />
<glyph unicode="I" horiz-adv-x="694" d="M199 0v1538h303v-1538h-303z" />
<glyph unicode="J" horiz-adv-x="714" d="M53 -348l15 254q33 -12 58 -12q95 0 95 157q-2 78 -2 450t1 705l1 332h301v-1511q0 -123 -59 -217.5t-167 -139.5q-69 -28 -148 -28q-46 0 -95 10z" />
<glyph unicode="K" horiz-adv-x="1482" d="M199 0v1538h303v-733q98 117 302.5 384t270.5 349h346q-3 -3 -45 -59t-97.5 -127.5t-122.5 -158.5t-139.5 -179.5t-129.5 -163.5q196 -305 352 -535q26 -33 58.5 -45.5t58.5 -8.5t49 18l6 -265q-61 -31 -132 -31q-41 1 -85 11q-121 28 -188 123q-143 202 -326 477 q-30 -39 -67 -85t-60.5 -77t-50.5 -76v-356h-303z" />
<glyph unicode="L" horiz-adv-x="1220" d="M195 0v1538h301v-1270h686l-56 -268h-931z" />
<glyph unicode="M" horiz-adv-x="1814" d="M168 0v1538h418l317 -936l10 -133l7 133l323 936h414v-1538h-301v958v132l-17 -132l-282 -774h-287l-281 772l-18 134v-134v-956h-303z" />
<glyph unicode="N" horiz-adv-x="1517" d="M195 0v1538h278l580 -907l18 -96v1003h301v-1538h-274l-582 938l-18 100v-1038h-303z" />
<glyph unicode="O" horiz-adv-x="1540" d="M119 639v256q0 145 51.5 269t139.5 209t206.5 133t249.5 48t249.5 -48t207 -133t140.5 -209t52 -269v-256q0 -190 -89 -342t-236.5 -234.5t-323.5 -82.5q-175 0 -322.5 82.5t-236 234.5t-88.5 342zM420 631q0 -169 101 -276t243 -107t243 107t101 276v274 q0 172 -100.5 277.5t-243.5 105.5t-243.5 -105.5t-100.5 -277.5v-274z" />
<glyph unicode="P" horiz-adv-x="1392" d="M197 0v1540h602q108 0 203 -41t160.5 -110t103 -161.5t37.5 -193.5q0 -147 -62.5 -270t-178.5 -197.5t-263 -74.5h-299v-492h-303zM500 764h252q106 0 175.5 76.5t69.5 189.5q0 99 -67.5 171.5t-163.5 72.5h-266v-510z" />
<glyph unicode="Q" horiz-adv-x="1523" d="M119 635v256q0 186 88.5 338t237 236.5t323.5 84.5q130 0 249 -50t206.5 -136.5t139.5 -210t52 -262.5v-256q0 -155 -70.5 -302.5t-189.5 -234.5q-59 -41 -115 -61q49 -22 109 -66.5t84 -58.5t61 -16h5q34 0 67 20l4 -221q-51 -24 -111 -24q-1 0 -2 1q-61 0 -107 15 t-81 39q-43 30 -97.5 77t-90 78.5t-93.5 61.5t-124 41q-113 19 -213 76t-173.5 141t-116 196.5t-42.5 237.5zM420 606q0 -158 101 -260t243 -102q143 0 244.5 102t101.5 260v316q0 161 -101 261.5t-245 100.5q-143 0 -243.5 -100.5t-100.5 -261.5v-316z" />
<glyph unicode="R" horiz-adv-x="1435" d="M197 0v1538h604h5q106 0 200 -40q96 -41 160.5 -111.5t101.5 -164.5t37 -196q0 -132 -62 -241t-174 -179q-43 -27 -65 -35q33 -24 62.5 -70t51 -88t48.5 -80q26 -39 66 -55q21 -9 46 -8q22 0 47 6v-274q-61 -22 -117 -22q-50 0 -94 16q-98 36 -172 135q-25 33 -56 89.5 t-57 105t-57 95t-68.5 74t-78.5 27.5h-127v-522h-301zM498 784h262q110 0 174.5 72t64.5 170q0 96 -62.5 168t-162.5 72h-276v-482z" />
<glyph unicode="S" horiz-adv-x="1339" d="M123 164l104 287q89 -92 205 -150.5t227 -58.5q214 0 242 147q3 19 3 36q0 126 -179 183q-213 67 -363 131q-97 42 -160.5 128t-76.5 192q-3 24 -3 49q0 83 34 172q58 144 204 212q129 61 288 61q21 0 42 -1q140 -7 272.5 -54.5t233.5 -123.5l-147 -262 q-77 86 -178.5 136.5t-198.5 56.5q-11 1 -22 1q-83 0 -141 -34q-66 -38 -83 -115q-4 -21 -4 -40q0 -47 25 -89q36 -60 110 -86q3 -1 125.5 -41.5t204 -71.5t135.5 -61q94 -50 146 -126q52 -74 58 -160q1 -16 1 -33q0 -71 -21 -150q-30 -98 -110 -170.5t-184.5 -107.5 t-221.5 -35q-171 0 -320.5 49.5t-246.5 128.5z" />
<glyph unicode="T" horiz-adv-x="1249" d="M61 1266v272h1125v-272h-422v-1266h-301v1266h-402z" />
<glyph unicode="U" horiz-adv-x="1550" d="M160 618v920h303v-950q0 -145 88.5 -244.5t224.5 -99.5t225 99.5t89 244.5v950h307v-920q0 -138 -47.5 -257.5t-130 -202.5t-196.5 -130.5t-245 -47.5q-174 0 -315 80.5t-222 227t-81 330.5z" />
<glyph unicode="V" horiz-adv-x="1398" d="M43 1538h315l342 -1147l11 -127l10 127l313 1147h316l-439 -1538h-397z" />
<glyph unicode="W" horiz-adv-x="2039" d="M37 1538l6 2h307l268 -1036l13 -168l10 129l223 969h314l243 -983l9 -115l8 153l254 1051h311l-379 -1540h-381l-207 842l-10 149l-10 -149l-191 -842h-381z" />
<glyph unicode="X" horiz-adv-x="1423" d="M29 1536h368q33 -48 140 -228t163 -264q8 -12 17 -79q10 69 16 79q65 100 270 448l25 44h361q-215 -336 -486 -745q208 -319 279 -420q56 -77 97 -102q33 -20 81 -20q12 0 24 1v-250q-65 -22 -124 -22q-164 0 -277 172q2 -2 -43 67.5t-111 170.5t-90 138q-8 12 -18 97 q-10 -83 -19 -97l-311 -526h-360q29 42 232 357.5t280 428.5q-232 346 -514 750z" />
<glyph unicode="Y" horiz-adv-x="1312" d="M12 1538h330q65 -144 268 -561q41 -85 45 -201q4 116 45 201q216 443 269 561h329q-427 -838 -452 -891q-37 -73 -37 -178v-469h-307v469q0 105 -37 178q-46 96 -122.5 246.5t-180.5 352t-150 292.5z" />
<glyph unicode="Z" horiz-adv-x="1312" d="M41 270q101 130 406.5 494.5t410.5 505.5h-747l2 268h1024l86 -274l-813 -992h794v-272h-1034z" />
<glyph unicode="[" horiz-adv-x="735" d="M193 -285v1786h491l-18 -201h-213v-1384h213l18 -201h-491z" />
<glyph unicode="\" horiz-adv-x="780" d="M-39 1501h217l641 -1786h-219z" />
<glyph unicode="]" horiz-adv-x="735" d="M51 -285l19 201h213v1384h-213l-19 201h492v-1786h-492z" />
<glyph unicode="^" horiz-adv-x="1085" d="M158 997v23l209 522h350l211 -522v-23h-219l-170 459l-166 -459h-215z" />
<glyph unicode="_" d="M66 -147h892v-187h-892v187z" />
<glyph unicode="`" d="M279 1501h299l167 -287v-22h-221z" />
<glyph unicode="a" horiz-adv-x="1216" d="M113 332v30q0 143 115.5 244t279.5 101q83 0 159.5 -34t133.5 -91v108q0 49 -15 87.5t-38.5 61.5t-55 38t-61.5 20t-60 4q-161 -8 -317 -129q-21 57 -44.5 126.5t-31.5 92.5q62 31 95 46t91.5 36.5t117.5 31t126 9.5q202 0 337.5 -129.5t135.5 -329.5v-655h-272l-8 106 q-56 -54 -132 -86t-161 -32q-164 0 -279.5 101.5t-115.5 242.5zM395 352q0 -73 51.5 -109t133.5 -36h41q81 0 132.5 36.5t51.5 108.5q0 69 -52.5 106.5t-131.5 37.5h-41q-81 0 -133 -37t-52 -107z" />
<glyph unicode="b" horiz-adv-x="1325" d="M164 0v1489l301 53v-575q55 64 135 101.5t170 37.5q162 0 275.5 -117t113.5 -289v-294q0 -175 -113 -290.5t-276 -115.5q-91 0 -171.5 37t-133.5 102l-10 -139h-291zM463 440q0 -100 57 -159.5t142 -59.5q84 0 140 59.5t56 159.5v217q0 96 -56.5 156.5t-139.5 60.5 t-141 -61t-58 -156v-217z" />
<glyph unicode="c" horiz-adv-x="1150" d="M150 508v92q0 140 69 259t188 188t259 69h8q243 0 383 -162l-162 -186q-38 48 -92.5 82.5t-114.5 34.5q-99 0 -165 -72t-66 -195v-139q0 -130 64.5 -196t166.5 -66q69 0 132.5 41t109.5 98l153 -186q-155 -176 -409 -176h-8q-140 0 -259 68.5t-188 187t-69 258.5z" />
<glyph unicode="d" horiz-adv-x="1304" d="M162 406v294q0 172 113.5 289t275.5 117q90 0 170 -37.5t135 -101.5l2 530l299 53v-1550h-291l-10 139q-53 -65 -133.5 -102t-171.5 -37q-163 0 -276 115.5t-113 290.5zM463 440q0 -100 56 -159.5t140 -59.5q85 0 142 59.5t57 159.5v217q0 95 -58 156t-141 61 t-139.5 -60.5t-56.5 -156.5v-217z" />
<glyph unicode="e" horiz-adv-x="1247" d="M131 496v86q0 150 58 270t175.5 192t276.5 72q129 0 237.5 -52t174 -150t65.5 -222q0 -108 -78.5 -169.5t-218.5 -61.5h-391v-31q0 -75 61 -131.5t156 -62.5q17 -1 34 -1q109 0 206 39q112 45 184 117q1 -62 1 -144t1 -124q-60 -50 -180.5 -87.5t-222.5 -37.5h-62 q-204 0 -340.5 138.5t-136.5 359.5zM430 653h313q38 0 58 20t20 46q0 71 -54 118.5t-138 47.5q-82 0 -140.5 -57.5t-58.5 -147.5v-27z" />
<glyph unicode="f" horiz-adv-x="905" d="M74 891v213h151v22q0 190 98 298t255 124q49 5 94 5q115 0 198 -35l-4 -238q-66 50 -148 50q-26 0 -54 -5q-67 -12 -104.5 -55t-37.5 -137v-29h344l-2 -213h-342q0 -43 2 -891h-301l2 891h-151z" />
<glyph unicode="g" horiz-adv-x="1263" d="M123 403v295q0 175 113 290.5t276 115.5q91 0 171.5 -37t133.5 -102l10 139h293v-1026q0 -230 -117.5 -371t-326.5 -141q-134 0 -231 22t-187 68l35 301q185 -145 344 -145q80 0 131 42.5t51 129.5v155l-2 -2q-55 -64 -135 -101.5t-170 -37.5q-162 0 -275.5 116.5 t-113.5 288.5zM424 446q0 -96 56.5 -156.5t140.5 -60.5q77 0 134 55t64 142v258q-7 91 -63 145t-135 54q-84 0 -140.5 -59.5t-56.5 -159.5v-218z" />
<glyph unicode="h" horiz-adv-x="1339" d="M176 0v1511l301 41v-626q52 80 138 128t186 48q157 0 268 -107t111 -258v-737h-299v639q0 85 -59 145t-142 60t-142 -59t-61 -142v-643h-301z" />
<glyph unicode="i" horiz-adv-x="655" d="M154 1427q0 69 49 118.5t119 49.5h8h4q69 -1 117.5 -50.5t48.5 -117.5q0 -67 -48 -115t-116 -50h-8h-6q-70 0 -119 48t-49 117zM176 0v1081l301 41v-1122h-301z" />
<glyph unicode="j" horiz-adv-x="696" d="M0 -164q55 -20 95 -20q38 0 63 16q55 35 55 137v1110l301 41v-1065q0 -239 -90 -350q-58 -73 -168 -108q-58 -18 -125 -18q-62 0 -131 15v242zM188 1427q0 69 49 118.5t119 49.5h9h4q69 -1 117.5 -50.5t48.5 -117.5q0 -67 -48 -115t-116 -50h-9h-6q-70 0 -119 48t-49 117 z" />
<glyph unicode="k" horiz-adv-x="1232" d="M158 0v1511l301 41v-888q100 108 393 440h342q-200 -227 -401 -461q23 -37 53 -86t37.5 -60.5t28 -43t38.5 -58.5t56 -82q47 -66 125 -67q26 0 55 8v-252q-62 -23 -121 -23q-58 1 -114 23q-112 44 -193 174q-77 123 -164 270q-2 -2 -54 -54.5t-81 -86.5v-305h-301z" />
<glyph unicode="l" horiz-adv-x="655" d="M176 0v1507l299 41v-1548h-299z" />
<glyph unicode="m" horiz-adv-x="1943" d="M172 0v1067l301 41v-182q115 176 299 176q113 0 196 -58.5t128 -158.5l28 41q117 176 303 176q154 0 254.5 -106t100.5 -259v-737h-299v645q0 87 -47.5 143t-128.5 56t-129.5 -54t-51.5 -139v-651h-299v645q0 87 -47.5 143t-128.5 56t-128.5 -54.5t-49.5 -140.5v-649 h-301z" />
<glyph unicode="n" horiz-adv-x="1341" d="M178 0v1067l301 41v-182q52 80 138 128t186 48q157 0 268 -107t111 -258v-737h-299v639q0 85 -59 145t-142 60t-142 -59t-61 -142v-4v-639h-301z" />
<glyph unicode="o" horiz-adv-x="1302" d="M123 510v88q0 101 38 194t105 164.5t167.5 114.5t217.5 43q120 0 221.5 -42.5t169.5 -114.5t106 -165.5t38 -195.5v-88q0 -105 -38 -199t-105.5 -164.5t-167.5 -111.5t-218 -41q-120 0 -221.5 41t-169 111.5t-105.5 165t-38 200.5zM424 485q0 -124 62 -191t171 -67 q106 0 167 68t61 190v133q0 115 -64 188t-170 73q-102 0 -164.5 -73t-62.5 -188v-133z" />
<glyph unicode="p" horiz-adv-x="1290" d="M147 -444v1503l291 49l11 -135q53 65 133 101t172 36q163 0 276 -115t113 -288v-308q0 -172 -113 -287.5t-276 -115.5q-90 0 -169.5 37t-135.5 100v-536zM446 442q0 -95 58 -156t141 -61q84 0 140.5 60.5t56.5 156.5v230q0 100 -56 158.5t-141 58.5t-142 -58.5 t-57 -158.5v-230z" />
<glyph unicode="q" horiz-adv-x="1253" d="M104 401v304q0 175 113.5 290t276.5 115q91 0 171.5 -38t133.5 -103l10 139h291v-1466l-301 -76v569q-55 -64 -135 -101.5t-170 -37.5q-163 0 -276.5 116.5t-113.5 288.5zM406 444q0 -96 56.5 -156.5t139.5 -60.5t141 61t58 156v226q0 100 -57 159.5t-142 59.5 q-84 0 -140 -59.5t-56 -159.5v-226z" />
<glyph unicode="r" horiz-adv-x="888" d="M158 0v1071l299 39v-211q30 86 109 147.5t171 61.5q59 0 99 -21l-29 -276q-18 11 -51 19q-24 5 -48 5q-10 0 -20 -1q-108 -9 -169.5 -77t-61.5 -190v-567h-299z" />
<glyph unicode="s" horiz-adv-x="1105" d="M133 98l4 46q16 173 23 229q114 -69 201.5 -104.5t185.5 -45.5q20 -2 37 -2q107 0 125 74q3 11 3 22q0 29 -22 53q-29 32 -84 46q-58 14 -143 39t-90 26q-133 39 -199 139q-47 71 -47 163q0 39 8 83q25 129 138 189.5t280 60.5q200 0 418 -112q-3 -32 -35 -271 q-177 120 -330 137q-30 3 -55 3q-106 0 -125 -58q-4 -14 -4 -28q0 -25 16 -49q25 -36 97 -56q102 -27 253 -80q104 -36 160 -115q50 -70 50 -164q0 -12 -1 -24q-6 -84 -43.5 -146.5t-98 -97.5t-130.5 -51q-66 -16 -141 -16h-9q-72 0 -143.5 11.5t-123 27.5t-93 32t-61.5 27z " />
<glyph unicode="t" horiz-adv-x="948" d="M41 897v213h176v322l299 41v-363h336v-213h-334v-440q0 -95 16 -144t64 -63q24 -8 51 -8q31 0 63 10q62 18 107 51q0 -35 3 -94.5t5 -98.5t0 -40q-54 -34 -140 -57q-51 -14 -109 -14q-40 0 -84 7q-135 22 -206 112.5t-71 278.5v500h-176z" />
<glyph unicode="u" horiz-adv-x="1280" d="M147 365v737h299v-639q0 -85 59 -145t142 -60t142 59t61 142v4v639h301v-1102h-285l-16 176q-52 -80 -138 -128t-186 -48q-157 0 -268 107t-111 258z" />
<glyph unicode="v" horiz-adv-x="1134" d="M47 1108h318q15 -47 84 -293t88 -313q11 -42 16.5 -77t7.5 -58t4 -82q3 80 8 119t21 96q16 53 58 198.5t74.5 257.5t45.5 152h318l-367 -1108h-309z" />
<glyph unicode="w" horiz-adv-x="1646" d="M33 1104h311l162 -625q4 -20 7 -46.5t6.5 -67.5t6.5 -66q12 139 23 180l153 625h240l152 -625q8 -30 20 -180q11 137 21 180l168 625h309l-320 -1104h-321l-135 551l-13 149l-14 -149l-135 -551h-322z" />
<glyph unicode="x" horiz-adv-x="1181" d="M45 1104h342q25 -43 188 -338q10 -15 21 -121q2 16 5 40.5t4.5 36.5t4 24t6.5 18q65 117 191 340h342q-68 -103 -170.5 -263.5t-190.5 -291.5q87 -127 187 -283t174 -266h-340q-120 207 -197 340q-5 8 -7.5 25.5t-5 49.5t-3.5 38q-1 -9 -3 -39t-5 -48.5t-8 -27.5 q-168 -297 -193 -338h-340q83 123 179.5 277t176.5 272q-78 117 -176.5 275t-181.5 280z" />
<glyph unicode="y" horiz-adv-x="1081" d="M18 1106h320q20 -59 186 -617q7 -24 15 -65.5t12 -70.5l4 -29q11 112 25 165q20 78 86 311.5t90 303.5h311l-408 -1235q-47 -139 -131 -202.5t-221 -63.5q-101 0 -190 30l22 250q9 -2 33 -9.5t38.5 -11.5t41 -6.5t53.5 -0.5q31 2 55.5 36t51.5 119z" />
<glyph unicode="z" horiz-adv-x="1136" d="M104 262q67 81 284.5 310.5t266.5 285.5h-473l-43 246h862v-285q-25 -31 -252.5 -274t-275.5 -299h551v-246h-852z" />
<glyph unicode="{" horiz-adv-x="735" d="M111 508v201h116q76 0 108 20t32 70q0 33 -24.5 73t-59.5 80.5t-70 84.5t-59.5 98.5t-24.5 107.5q0 119 86.5 188.5t278.5 69.5h153v-201h-162q-63 0 -86.5 -19.5t-23.5 -63.5q0 -27 24.5 -62.5t59.5 -74t70.5 -80t60 -91.5t24.5 -98q0 -86 -55 -134t-172 -61v-16 q117 -12 172 -60t55 -134q0 -55 -37.5 -118.5t-82 -109.5t-82 -96t-37.5 -82q0 -44 23 -64t87 -20h162v-201h-153q-190 0 -277.5 68t-87.5 188q0 54 24.5 109t59.5 99t70 84.5t59.5 81t24.5 73.5q0 51 -32 70.5t-108 19.5h-116z" />
<glyph unicode="|" horiz-adv-x="567" d="M182 -451v2024h203v-2024h-203z" />
<glyph unicode="}" horiz-adv-x="735" d="M88 -84h162q63 0 86.5 20t23.5 64q0 27 -24.5 62.5t-59.5 74t-70.5 80t-60 91.5t-24.5 98q0 86 55 133.5t172 60.5v16q-117 12 -172 60.5t-55 134.5q0 55 37.5 118.5t82 109.5t82 96t37.5 82q0 44 -23 63.5t-87 19.5h-162v201h154q364 0 364 -256q0 -54 -24.5 -108.5 t-59 -98.5t-69.5 -85t-59.5 -81t-24.5 -73q0 -51 31.5 -70.5t107.5 -19.5h117v-201h-117q-76 0 -107.5 -20t-31.5 -70q0 -33 24.5 -73.5t59.5 -81t69.5 -84.5t59 -98.5t24.5 -107.5q0 -119 -86 -188.5t-278 -69.5h-154v201z" />
<glyph unicode="~" horiz-adv-x="1085" d="M123 414v223q54 51 108.5 70.5t126.5 19.5q67 0 191.5 -54.5t187.5 -54.5q59 0 104.5 24.5t119.5 88.5v-225q-63 -57 -113 -78.5t-111 -21.5q-57 0 -125.5 27.5t-135 55t-118.5 27.5q-118 0 -235 -102z" />
<glyph unicode="&#xa1;" horiz-adv-x="622" d="M154 991q0 71 41 110.5t116 39.5q72 0 114 -39.5t42 -110.5q0 -70 -42 -108.5t-114 -38.5q-71 0 -114 37.5t-43 109.5zM186 158l27 473h197l24 -473v-570h-248v570z" />
<glyph unicode="&#xa2;" horiz-adv-x="1204" d="M174 506v192q0 190 136.5 325.5t328.5 135.5h16q71 0 136 -12l59 170h94l-67 -191q88 -26 149 -67l-72 -223q-69 46 -149 79l-225 -645q30 -10 59 -10h16q57 0 134.5 36t126.5 72l49 35l77 -235q-77 -57 -186.5 -91t-200.5 -34h-16q-69 0 -131 18l-62 -176h-94l74 209 q-114 59 -183 169.5t-69 242.5zM430 487q0 -98 72 -170l217 621q-27 6 -57 6h-15q-93 0 -155 -68.5t-62 -160.5v-228z" />
<glyph unicode="&#xa3;" horiz-adv-x="1200" d="M137 0v225q63 0 131 6q84 12 119 32q45 27 59 77q7 25 6.5 49t-3 40.5t-14 41t-17 34.5t-24.5 38t-23 35h-226v186h117q-94 166 -94 332q0 108 43.5 196.5t116.5 144t164.5 85.5t191.5 30q127 0 240 -50t184 -148l-182 -160q-37 59 -107.5 95t-136.5 36 q-123 0 -189.5 -62.5t-66.5 -166.5q0 -63 41.5 -158t91.5 -174h463l-80 -186h-276q43 -95 43 -177q0 -100 -47 -176h67h358v-225h-950z" />
<glyph unicode="&#xa4;" horiz-adv-x="1196" d="M117 186l106 111q-82 125 -82 276q0 156 82 281l-106 111l129 125l104 -113q113 72 248 72t248 -72l104 113l129 -125l-106 -111q82 -125 82 -279q0 -153 -82 -278l106 -111l-129 -125l-104 113q-113 -72 -248 -72t-248 72l-104 -113zM330 575q0 -150 70 -225.5 t196 -75.5q129 0 199.5 75t70.5 226t-70.5 226.5t-199.5 75.5q-126 0 -196 -76t-70 -226z" />
<glyph unicode="&#xa5;" horiz-adv-x="1243" d="M23 1538h288q205 -440 260 -571q2 -5 7 -16.5t6.5 -15t5 -13.5t5 -16t4 -17.5l5 -23t5 -28t5.5 -36.5q4 24 7.5 41.5t7 32t5.5 22t6.5 18.5t6 15t8 17.5t9.5 19.5q223 487 260 571h297q-185 -348 -381 -762h213v-114h-267q-28 -67 -36 -144h303v-115h-308v-403h-258v403 h-297v115h295q-7 75 -36 144h-259v114h203q-41 85 -177.5 364t-192.5 398z" />
<glyph unicode="&#xa6;" horiz-adv-x="567" d="M182 0v616h203v-616h-203zM182 885v616h203v-616h-203z" />
<glyph unicode="&#xa7;" horiz-adv-x="1175" d="M158 719q15 119 86 190q-105 92 -86 267q15 129 101 206.5t218 85.5q69 4 140.5 -7t118 -24t112 -19t123.5 7q-21 -138 -37 -213q-35 -13 -91.5 -7.5t-97 15t-90 22t-69.5 15.5q-78 11 -130 -12t-61 -78q-7 -48 1.5 -78t46.5 -47t62 -22t95 -14q13 -2 20.5 -3t19.5 -2.5 t22 -3.5q186 -27 273.5 -113.5t74.5 -254.5q-9 -126 -88 -199q103 -95 88 -276q-12 -150 -117.5 -222.5t-280.5 -72.5h-2q-63 1 -128 17t-134.5 28.5t-154.5 7.5q5 39 12 112t14 115q84 3 215 -33t193 -32q77 5 108 27t31 87q0 76 -57 108.5t-193 43.5q-59 4 -112.5 18.5 t-103.5 44t-84 71t-50.5 104.5t-7.5 141zM395 711q-7 -70 39.5 -110.5t140.5 -49.5q82 -9 135 22.5t56 90.5q4 50 -38 92.5t-136 50.5q-184 15 -197 -96z" />
<glyph unicode="&#xa8;" d="M184 1382q0 62 33.5 94.5t91.5 32.5q57 0 91 -32t34 -95q0 -61 -32.5 -94t-92.5 -33q-59 0 -92 32.5t-33 94.5zM590 1382q0 62 33.5 94.5t93.5 32.5q55 0 89 -32t34 -95q0 -61 -32.5 -94t-92.5 -33q-58 0 -91.5 32.5t-33.5 94.5z" />
<glyph unicode="&#xa9;" horiz-adv-x="1542" d="M92 752q0 342 179 536.5t501 194.5q321 0 499.5 -192.5t178.5 -538.5q0 -222 -76 -384.5t-230 -253.5t-372 -91q-327 0 -503.5 195.5t-176.5 533.5zM217 752q0 -290 138.5 -451.5t418.5 -161.5q278 0 416.5 157t138.5 456q0 294 -144.5 454t-410.5 160 q-282 0 -419.5 -158t-137.5 -456zM455 688q0 -132 93.5 -224.5t225.5 -92.5h12q63 0 138 23t127 63l-54 159q-14 -11 -36.5 -27.5t-79 -43.5t-95.5 -27h-12q-58 0 -100.5 47.5t-42.5 110.5v155q0 64 42.5 111t106.5 47h11q89 0 200 -76l49 154q-42 29 -112 49.5t-142 20.5 h-12q-132 0 -225.5 -93t-93.5 -225v-131z" />
<glyph unicode="&#xaa;" horiz-adv-x="870" d="M84 975v22q0 99 80 169.5t194 70.5q113 0 205 -88v76q0 42 -15.5 73t-40.5 46.5t-51 22t-53 5.5q-107 -5 -221 -90q-16 40 -33 92.5t-20 59.5q56 29 88.5 43t91 28.5t119.5 14.5q141 0 235.5 -90t94.5 -230v-455h-191l-4 74q-87 -84 -205 -84q-114 0 -194 70.5t-80 169.5 zM281 989q0 -51 35.5 -75.5t93.5 -24.5h26q58 0 93.5 25t35.5 75q0 49 -36 75t-93 26h-26q-57 0 -93 -25.5t-36 -75.5z" />
<glyph unicode="&#xab;" horiz-adv-x="1136" d="M74 557l291 473h223l-250 -473l250 -473h-223zM549 557l293 473h219l-246 -473l246 -473h-219z" />
<glyph unicode="&#xac;" horiz-adv-x="1200" d="M119 580v221h960v-570h-233v349h-727z" />
<glyph unicode="&#xad;" horiz-adv-x="512" d="M47 440v207h418v-207h-418z" />
<glyph unicode="&#xae;" horiz-adv-x="931" d="M96 1133q0 175 101 282t270 107q167 0 268 -105.5t101 -283.5q0 -172 -100 -280t-269 -108q-172 0 -271.5 108t-99.5 280zM174 1133q0 -145 74.5 -232.5t220.5 -87.5q140 0 214.5 85t74.5 235q0 151 -76.5 236t-214.5 85q-145 0 -219 -85t-74 -236zM332 946v379h145 q56 0 88 -37q35 -35 35 -88q0 -35 -19.5 -65t-50.5 -48q7 -11 20.5 -34.5t20.5 -32.5q7 -6 15 -6q6 0 8 2l12 4l2 -72l-6 -4q-8 -2 -24 -2q-20 0 -35 6q-17 6 -35 27q-10 13 -31 55q-4 7 -18 35q-10 10 -23 10h-24v-129h-80zM412 1149h61q19 0 33 14q14 17 14 37 q0 22 -12 37q-14 14 -31 14h-65v-102z" />
<glyph unicode="&#xaf;" d="M242 1288v213h542v-213h-542z" />
<glyph unicode="&#xb0;" horiz-adv-x="821" d="M80 1233q0 151 88 230t240 79q158 0 245.5 -78t87.5 -229t-88.5 -230t-242.5 -79t-242 78t-88 229zM268 1235q0 -73 36.5 -114.5t105.5 -41.5t106 40.5t37 115.5q0 151 -143 151q-68 0 -105 -38.5t-37 -112.5z" />
<glyph unicode="&#xb1;" horiz-adv-x="1085" d="M129 0v201h827v-201h-827zM129 573v203h307v311h213v-311h307v-203h-307v-309h-213v309h-307z" />
<glyph unicode="&#xb2;" horiz-adv-x="882" d="M100 1227q17 16 392 366q38 38 45 81t-21 75q-31 31 -72.5 29.5t-81.5 -31.5q-81 -67 -133 -121l-127 135q153 163 273 191q69 14 146.5 -2t129.5 -60q93 -84 92.5 -198.5t-84.5 -200.5q-151 -154 -253 -252l333 2v-176h-587z" />
<glyph unicode="&#xb3;" horiz-adv-x="897" d="M94 1124l125 148q30 -57 87.5 -94t123.5 -37q53 0 88 31t41 79q7 59 -33 99.5t-102 38.5h-121v155h117q52 -1 86.5 33t36.5 84q3 53 -29.5 89t-87.5 36q-39 0 -77.5 -18.5t-62 -39t-59.5 -57.5l-118 154q158 135 317 135q127 0 219 -76.5t92 -193.5q0 -67 -31 -124.5 t-88 -90.5q60 -34 97 -96.5t37 -131.5q0 -90 -47 -155.5t-119 -96t-158 -30.5q-101 0 -193.5 43t-140.5 116z" />
<glyph unicode="&#xb4;" d="M279 1233v22l165 287h301l-247 -309h-219z" />
<glyph unicode="&#xb5;" horiz-adv-x="1267" d="M174 -446v1550h250v-682q0 -62 9.5 -102.5t28.5 -58t37.5 -23t45.5 -5.5q39 0 88.5 21.5t93.5 21.5q57 0 121 -45v873h252v-1092l-187 -24q-38 47 -74 62.5t-81 15.5q-51 0 -112 -34t-126 -34q-23 0 -51 9.5t-45 21.5v-475h-250z" />
<glyph unicode="&#xb6;" horiz-adv-x="1146" d="M66 893q0 249 132 365t398 116q217 0 397 -41v-1480h-184v1321q-58 14 -117 14v-1335h-184v598h-59q-97 0 -166 22t-119 72.5t-74 136.5t-24 211z" />
<glyph unicode="&#xb7;" horiz-adv-x="583" d="M133 547q0 71 43 110t115 39t116 -37.5t44 -111.5q0 -71 -42 -111.5t-118 -40.5q-73 0 -115.5 40.5t-42.5 111.5z" />
<glyph unicode="&#xb8;" d="M299 -430l29 141q91 -26 166 -26q36 0 50.5 12.5t14.5 42.5q0 34 -25 46.5t-141 41.5l47 197h125l-28 -115q110 -30 149 -69t39 -113q0 -179 -223 -179q-95 0 -203 21z" />
<glyph unicode="&#xb9;" horiz-adv-x="847" d="M127 1702l264 235l197 -53v-819h-201v653l-156 -149z" />
<glyph unicode="&#xba;" horiz-adv-x="933" d="M92 1102v61q0 145 102.5 252t264.5 107q166 0 269 -106.5t103 -254.5v-61q0 -152 -101.5 -255.5t-264.5 -103.5q-168 0 -270.5 104t-102.5 257zM303 1085q0 -87 43 -134.5t119 -47.5q72 0 114 48t42 134v93q0 79 -44 129.5t-118 50.5q-70 0 -113 -50.5t-43 -129.5v-93z " />
<glyph unicode="&#xbb;" horiz-adv-x="1136" d="M74 84l248 473l-248 473h221l293 -473l-293 -473h-221zM549 84l248 473l-248 473h221l291 -473l-291 -473h-221z" />
<glyph unicode="&#xbc;" horiz-adv-x="2095" d="M164 1266l264 235l197 -53v-819h-201v653l-156 -149zM657 0l543 1501h166l-543 -1501h-166zM1221 362l276 506q20 33 148 170h233q-16 -16 -42 -48t-59 -72t-46 -56q-70 -118 -168 -301t-115 -213h240v291h196v-291h125v-184h-125v-164h-196v164h-381z" />
<glyph unicode="&#xbd;" horiz-adv-x="2068" d="M164 1266l264 235l197 -53v-819h-201v653l-156 -149zM657 0l543 1501h166l-543 -1501h-166zM1280 162q81 75 216.5 202t174.5 164q38 38 45.5 81t-20.5 75q-31 31 -72.5 29.5t-81.5 -31.5q-81 -67 -133 -121l-127 135q153 163 272 191q69 14 147 -2t130 -60 q93 -84 92.5 -198.5t-84.5 -200.5q-135 -137 -254 -252l334 2v-176h-588z" />
<glyph unicode="&#xbe;" horiz-adv-x="2160" d="M94 686l125 148q30 -57 87.5 -94.5t123.5 -37.5q53 0 88 31.5t41 79.5q7 59 -33 99t-102 38h-121v156h117q52 -1 86.5 33t36.5 84q3 53 -29.5 89t-87.5 36q-39 0 -77.5 -18.5t-62 -39t-59.5 -57.5l-118 153q159 136 317 136q126 0 218.5 -77t92.5 -194q0 -67 -31 -124.5 t-88 -90.5q60 -34 97 -96t37 -131q0 -90 -47 -156t-119 -96.5t-158 -30.5q-100 0 -192.5 43t-141.5 117zM705 0l542 1501h166l-543 -1501h-165zM1257 362l277 506q21 36 147 170h234q-16 -17 -42 -47.5t-60.5 -72.5t-45.5 -56q-70 -117 -166.5 -298.5t-115.5 -215.5h239v291 h197v-291h125v-184h-125v-164h-197v164h-381z" />
<glyph unicode="&#xbf;" horiz-adv-x="929" d="M86 -86q0 63 19.5 117t50.5 91.5t69 70t76 59t70 52.5t52.5 57t22.5 65l13 192h209l4 -239q3 -56 -20 -105.5t-59.5 -83.5t-80 -67.5t-82 -58t-66 -54.5t-30.5 -59q-5 -48 14 -85.5t58.5 -54.5t90 -15t114.5 35.5t126 94.5l90 -219q-143 -129 -331 -141q-182 -11 -296 86 t-114 262zM393 981q0 69 42 108t118 39q72 0 114 -38.5t42 -108.5t-43 -108.5t-115 -38.5q-71 0 -114.5 37t-43.5 110z" />
<glyph unicode="&#xc0;" horiz-adv-x="1394" d="M20 0l523 1538h317l516 -1538h-319q-6 18 -45 147t-84 267h-449l-139 -414h-320zM369 1853h274l158 -219v-20h-217zM541 659h319l-145 492l-13 125l-12 -125z" />
<glyph unicode="&#xc1;" horiz-adv-x="1390" d="M20 0l523 1538h317l516 -1538h-319q-6 18 -45 147t-84 267h-449l-139 -414h-320zM541 659h319l-145 492l-13 125l-12 -125zM586 1614v20l159 219h275l-217 -239h-217z" />
<glyph unicode="&#xc2;" horiz-adv-x="1398" d="M20 0l523 1538h317l516 -1538h-319q-6 18 -45 147t-84 267h-449l-139 -414h-320zM389 1614v20l141 219h332l142 -219v-20h-203l-109 164l-106 -164h-197zM541 659h319l-145 492l-13 125l-12 -125z" />
<glyph unicode="&#xc3;" horiz-adv-x="1398" d="M20 0l523 1538h317l516 -1538h-319q-6 18 -45 147t-84 267h-449l-139 -414h-320zM346 1634q16 130 64.5 178t121.5 48q58 0 113 -27l103 -51q30 -15 47 -15q26 0 39.5 20.5t19.5 65.5h172q-14 -125 -62 -175t-124 -50q-58 0 -113 27l-102 51q-25 14 -47 14 q-26 0 -40 -20.5t-20 -65.5h-172zM541 659h319l-145 492l-13 125l-12 -125z" />
<glyph unicode="&#xc4;" horiz-adv-x="1398" d="M20 0l523 1538h317l516 -1538h-319q-6 18 -45 147t-84 267h-449l-139 -414h-320zM379 1743q0 55 31.5 82.5t89.5 27.5q54 0 87.5 -27t33.5 -83q0 -55 -32 -84t-91 -29q-57 0 -88 28.5t-31 84.5zM541 659h319l-145 492l-13 125l-12 -125zM772 1743q0 54 33 82t90 28 q55 0 87 -27t32 -83q0 -55 -31 -84t-88 -29q-58 0 -90.5 28.5t-32.5 84.5z" />
<glyph unicode="&#xc5;" horiz-adv-x="1398" d="M20 0l523 1538h317l516 -1538h-319q-6 18 -45 147t-84 267h-449l-139 -414h-320zM457 1792q0 86 61.5 128t188.5 42q243 0 243 -168q0 -170 -248 -170q-128 0 -186.5 41.5t-58.5 126.5zM541 659h319l-145 492l-13 125l-12 -125zM614 1792q0 -76 88 -76q91 0 91 76 q0 78 -91 78q-88 0 -88 -78z" />
<glyph unicode="&#xc6;" horiz-adv-x="1939" d="M18 0l521 1538h1294v-238h-627v-325q0 -59 24 -80t81 -21q40 -1 116.5 -1h142.5t126 1h61v-227h-477q-74 0 -74 -100v-307h606l29 -240h-893v553q0 61 4 92h-450l-211 -645h-273zM567 864h404q-19 54 -23 148v303l-239 2z" />
<glyph unicode="&#xc7;" horiz-adv-x="1230" d="M121 647v242q0 101 24.5 198t73 180.5t115.5 146.5t157.5 99t192.5 37h29q119 -3 239 -42.5t215 -108.5l-139 -221q-68 57 -154 94t-169 37h-15q-88 0 -159 -59t-108.5 -154.5t-37.5 -206.5v-242q0 -124 30 -216t100 -149t175 -57h27q44 0 92 14t99.5 42t78 44t70.5 46 l117 -224q-82 -48 -142.5 -78t-147.5 -57.5t-161 -27.5h-33l-18 -74q110 -30 149 -69t39 -113q0 -179 -223 -179q-95 0 -203 21l29 141q91 -26 166 -26q36 0 50.5 12.5t14.5 42.5q0 34 -25 46.5t-141 41.5l41 168q-205 45 -326.5 229t-121.5 422z" />
<glyph unicode="&#xc8;" horiz-adv-x="1251" d="M197 0h972l-39 272h-630v373h583v260h-583v361h653v272h-956v-1538zM389 1853h275l157 -219v-20h-217z" />
<glyph unicode="&#xc9;" horiz-adv-x="1251" d="M197 0h972l-39 272h-630v373h583v260h-583v361h653v272h-956v-1538zM510 1614v20l160 219h274l-217 -239h-217z" />
<glyph unicode="&#xca;" horiz-adv-x="1251" d="M197 0h972l-39 272h-630v373h583v260h-583v361h653v272h-956v-1538zM369 1614v20l141 219h332l141 -219v-20h-203l-108 164l-107 -164h-196z" />
<glyph unicode="&#xcb;" horiz-adv-x="1243" d="M197 0h972l-39 272h-630v373h583v260h-583v361h653v272h-956v-1538zM346 1743q0 55 31.5 82.5t89.5 27.5q54 0 87.5 -27t33.5 -83q0 -55 -32 -84t-91 -29q-57 0 -88 28.5t-31 84.5zM739 1743q0 54 33 82t90 28q55 0 87 -27t32 -83q0 -55 -31 -84t-88 -29 q-58 0 -90.5 28.5t-32.5 84.5z" />
<glyph unicode="&#xcc;" horiz-adv-x="694" d="M31 1853h274l158 -219v-20h-217zM197 0h299v1548l-299 -41v-1507z" />
<glyph unicode="&#xcd;" horiz-adv-x="675" d="M197 0h299v1548l-299 -41v-1507zM229 1614v20l160 219h275l-218 -239h-217z" />
<glyph unicode="&#xce;" horiz-adv-x="690" d="M57 1614v20l138 221h321l135 -221v-20h-194l-107 166l-102 -166h-191zM197 0h299v1548l-299 -41v-1507z" />
<glyph unicode="&#xcf;" horiz-adv-x="684" d="M33 1722q0 55 30.5 83t86.5 28q53 0 85.5 -27.5t32.5 -83.5q0 -55 -31.5 -83.5t-89.5 -28.5q-114 0 -114 112zM197 0h299v1548l-299 -41v-1507zM414 1722q0 54 32 82.5t86 28.5t85.5 -27.5t31.5 -83.5q0 -55 -30.5 -83.5t-86.5 -28.5t-87 28t-31 84z" />
<glyph unicode="&#xd0;" horiz-adv-x="1454" d="M33 688v201h164v649h565q174 -3 304.5 -94.5t196.5 -241.5t66 -336v-200q0 -191 -66.5 -340.5t-196.5 -236.5t-304 -89h-565v688h-164zM455 242h297q175 0 243 103t68 321v200q0 106 -15 183t-49.5 135.5t-96 87.5t-150.5 28h-297v-411h280v-201h-280v-446z" />
<glyph unicode="&#xd1;" horiz-adv-x="1538" d="M195 0v1538h278l580 -907l18 -96v1003h301v-1538h-274l-582 938l-18 100v-1038h-303zM442 1632q16 130 65 178t122 48q57 0 112 -27l103 -51q30 -15 47 -15q26 0 39.5 20.5t19.5 65.5h172q-14 -125 -62 -175t-124 -50q-58 0 -113 27l-102 51q-25 14 -47 14 q-26 0 -40 -20.5t-20 -65.5h-172z" />
<glyph unicode="&#xd2;" horiz-adv-x="1531" d="M119 639v256q0 145 51.5 269t139.5 209t206.5 133t249.5 48t249.5 -48t207 -133t140.5 -209t52 -269v-256q0 -190 -89 -342t-236.5 -234.5t-323.5 -82.5q-175 0 -322.5 82.5t-236 234.5t-88.5 342zM420 631q0 -169 101 -276t243 -107t243 107t101 276v274 q0 172 -100.5 277.5t-243.5 105.5t-243.5 -105.5t-100.5 -277.5v-274zM436 1853h275l157 -219v-20h-217z" />
<glyph unicode="&#xd3;" horiz-adv-x="1527" d="M119 639v256q0 145 51.5 269t139.5 209t206.5 133t249.5 48t249.5 -48t207 -133t140.5 -209t52 -269v-256q0 -190 -89 -342t-236.5 -234.5t-323.5 -82.5q-175 0 -322.5 82.5t-236 234.5t-88.5 342zM420 631q0 -169 101 -276t243 -107t243 107t101 276v274 q0 172 -100.5 277.5t-243.5 105.5t-243.5 -105.5t-100.5 -277.5v-274zM625 1614v20l159 219h275l-217 -239h-217z" />
<glyph unicode="&#xd4;" horiz-adv-x="1527" d="M119 639v256q0 145 51.5 269t139.5 209t206.5 133t249.5 48t249.5 -48t207 -133t140.5 -209t52 -269v-256q0 -190 -89 -342t-236.5 -234.5t-323.5 -82.5q-175 0 -322.5 82.5t-236 234.5t-88.5 342zM420 631q0 -169 101 -276t243 -107t243 107t101 276v274 q0 172 -100.5 277.5t-243.5 105.5t-243.5 -105.5t-100.5 -277.5v-274zM459 1614v20l141 219h332l141 -219v-20h-203l-108 164l-107 -164h-196z" />
<glyph unicode="&#xd5;" horiz-adv-x="1464" d="M121 686q0 -147 38 -273.5t110.5 -223t186.5 -152t257 -55.5h55q277 0 435.5 193t158.5 511v158q0 318 -161.5 511t-430.5 193h-57q-145 0 -259.5 -55.5t-186 -152.5t-109 -223t-37.5 -273v-158zM393 1634q16 130 65 178t122 48q57 0 112 -27l103 -51q30 -15 47 -15 q26 0 39.5 20.5t19.5 65.5h172q-14 -125 -62 -175t-124 -50q-58 0 -113 27l-102 51q-25 14 -47 14q-26 0 -40 -20.5t-20 -65.5h-172zM397 702v121q-1 85 8 154t32.5 134t62 109t101.5 70.5t147 26.5q71 0 128.5 -25.5t96 -70.5t64 -108t37 -135t11.5 -155v-116 q0 -101 -16.5 -183.5t-54 -152t-106 -108t-163.5 -38.5q-77 0 -137.5 26t-99.5 69.5t-64.5 105.5t-36 130t-10.5 146z" />
<glyph unicode="&#xd6;" horiz-adv-x="1521" d="M119 639v256q0 145 51.5 269t139.5 209t206.5 133t249.5 48t249.5 -48t207 -133t140.5 -209t52 -269v-256q0 -190 -89 -342t-236.5 -234.5t-323.5 -82.5q-175 0 -322.5 82.5t-236 234.5t-88.5 342zM420 631q0 -169 101 -276t243 -107t243 107t101 276v274 q0 172 -100.5 277.5t-243.5 105.5t-243.5 -105.5t-100.5 -277.5v-274zM449 1743q0 110 120 110q54 0 87.5 -27t33.5 -83q0 -55 -32 -84t-91 -29q-57 0 -87.5 28.5t-30.5 84.5zM842 1743q0 54 33 82t90 28q118 0 118 -110q0 -55 -30.5 -84t-87.5 -29q-58 0 -90.5 28.5 t-32.5 84.5z" />
<glyph unicode="&#xd7;" horiz-adv-x="1085" d="M100 258l291 291l-289 289l152 151l289 -289l288 289l150 -151l-289 -289l293 -291l-151 -149l-291 290l-293 -290z" />
<glyph unicode="&#xd8;" horiz-adv-x="1486" d="M121 686v158q0 147 37.5 273t109 223t186 152.5t259.5 55.5h57q205 0 350 -114l133 206h103l-172 -266q178 -193 178 -530v-158q0 -318 -158.5 -511t-435.5 -193h-55q-209 0 -351 114l-133 -207h-100l170 265q-88 97 -133 234t-45 298zM397 702q0 -186 60 -303l522 813 q-84 105 -231 105q-84 0 -147 -26.5t-101.5 -70.5t-62 -109t-32.5 -134t-8 -154v-121zM508 322q90 -97 237 -97q95 0 163.5 38.5t106 108t54 152t16.5 183.5v116q0 193 -57 310z" />
<glyph unicode="&#xd9;" horiz-adv-x="1574" d="M186 618v920h303v-950q0 -145 89 -244.5t225 -99.5t224.5 99.5t88.5 244.5v950h307v-920q0 -184 -81 -330.5t-222 -227t-315 -80.5q-131 0 -245 47.5t-196.5 130.5t-130 202.5t-47.5 257.5zM496 1853h274l158 -219v-20h-217z" />
<glyph unicode="&#xda;" horiz-adv-x="1595" d="M186 618v920h303v-950q0 -145 89 -244.5t225 -99.5t224.5 99.5t88.5 244.5v950h307v-920q0 -184 -81 -330.5t-222 -227t-315 -80.5q-131 0 -245 47.5t-196.5 130.5t-130 202.5t-47.5 257.5zM649 1614v20l160 219h274l-217 -239h-217z" />
<glyph unicode="&#xdb;" horiz-adv-x="1579" d="M186 618v920h303v-950q0 -145 89 -244.5t225 -99.5t224.5 99.5t88.5 244.5v950h307v-920q0 -184 -81 -330.5t-222 -227t-315 -80.5q-131 0 -245 47.5t-196.5 130.5t-130 202.5t-47.5 257.5zM498 1614v20l141 219h332l141 -219v-20h-203l-108 164l-107 -164h-196z" />
<glyph unicode="&#xdc;" horiz-adv-x="1564" d="M186 618v920h303v-950q0 -145 89 -244.5t225 -99.5t224.5 99.5t88.5 244.5v950h307v-920q0 -184 -81 -330.5t-222 -227t-315 -80.5q-131 0 -245 47.5t-196.5 130.5t-130 202.5t-47.5 257.5zM487 1743q0 55 31.5 82.5t89.5 27.5q54 0 87.5 -27t33.5 -83q0 -55 -32 -84 t-91 -29q-57 0 -88 28.5t-31 84.5zM881 1743q0 54 33 82t90 28q118 0 118 -110q0 -55 -30.5 -84t-87.5 -29q-58 0 -90.5 28.5t-32.5 84.5z" />
<glyph unicode="&#xdd;" horiz-adv-x="1316" d="M12 1538h330q65 -144 268 -561q41 -85 45 -201q4 116 45 201q216 443 269 561h329q-427 -838 -452 -891q-37 -73 -37 -178v-469h-307v469q0 105 -37 178q-46 96 -122.5 246.5t-180.5 352t-150 292.5zM524 1573v20l160 219h274l-217 -239h-217z" />
<glyph unicode="&#xde;" horiz-adv-x="1304" d="M197 0v1501h280v-258h203q252 0 385 -112.5t133 -360.5q0 -107 -28 -192t-77 -141.5t-118 -94t-147 -54t-169 -16.5h-182v-272h-280zM477 502h187q55 0 95.5 11.5t75 39.5t52.5 82t18 133q0 141 -60.5 195.5t-166.5 54.5h-201v-516z" />
<glyph unicode="&#xdf;" horiz-adv-x="1196" d="M158 0v1184q0 100 21.5 172t72.5 127t141.5 82.5t222.5 27.5q420 0 420 -327q0 -61 -28 -120.5t-67.5 -106t-79 -89.5t-67.5 -87t-28 -83q0 -35 26.5 -69.5t66 -62t85.5 -64.5t85.5 -74.5t66 -94t26.5 -120.5q0 -151 -88.5 -233t-245.5 -82q-110 0 -274 53l41 211 q104 -39 142.5 -49.5t74.5 -10.5q52 0 80.5 28t28.5 83q0 33 -26.5 65t-65.5 58t-85.5 60.5t-85.5 69.5t-65.5 87.5t-26.5 112.5q0 61 27.5 120t66 104.5t77.5 88.5t66.5 89t27.5 89q0 74 -40.5 106.5t-146.5 32.5q-113 0 -155.5 -40t-42.5 -148v-1190h-248z" />
<glyph unicode="&#xe0;" horiz-adv-x="1175" d="M102 336v51q0 143 116 243.5t280 100.5q86 0 162.5 -30.5t130.5 -84.5v74q0 49 -15 87.5t-38.5 61.5t-55 38t-61.5 20t-60 4q-161 -8 -317 -129q-21 57 -44.5 126.5t-31.5 92.5q62 31 95 46t91.5 36.5t117.5 31t126 9.5q202 0 337.5 -129.5t135.5 -329.5v-655h-272 l-8 106q-117 -114 -293 -114q-164 0 -280 101.5t-116 242.5zM272 1501h299l168 -287v-22h-221zM385 373q0 -75 50 -120.5t128 -45.5h53q78 0 128.5 46t50.5 120q0 71 -51.5 117.5t-127.5 46.5h-53q-77 0 -127.5 -45.5t-50.5 -118.5z" />
<glyph unicode="&#xe1;" horiz-adv-x="1173" d="M102 336v51q0 143 116 243.5t280 100.5q86 0 162.5 -30.5t130.5 -84.5v74q0 49 -15 87.5t-38.5 61.5t-55 38t-61.5 20t-60 4q-161 -8 -317 -129q-21 57 -44.5 126.5t-31.5 92.5q62 31 95 46t91.5 36.5t117.5 31t126 9.5q202 0 337.5 -129.5t135.5 -329.5v-655h-272 l-8 106q-117 -114 -293 -114q-164 0 -280 101.5t-116 242.5zM385 373q0 -75 50 -120.5t128 -45.5h53q78 0 128.5 46t50.5 120q0 71 -51.5 117.5t-127.5 46.5h-53q-77 0 -127.5 -45.5t-50.5 -118.5zM444 1192v22l166 287h301l-247 -309h-220z" />
<glyph unicode="&#xe2;" horiz-adv-x="1179" d="M102 336v51q0 143 116 243.5t280 100.5q86 0 162.5 -30.5t130.5 -84.5v74q0 49 -15 87.5t-38.5 61.5t-55 38t-61.5 20t-60 4q-161 -8 -317 -129q-21 57 -44.5 126.5t-31.5 92.5q62 31 95 46t91.5 36.5t117.5 31t126 9.5q202 0 337.5 -129.5t135.5 -329.5v-655h-272 l-8 106q-117 -114 -293 -114q-164 0 -280 101.5t-116 242.5zM279 1192v20l161 289h351l161 -289v-20h-215l-125 223l-123 -223h-210zM385 373q0 -75 50 -120.5t128 -45.5h53q78 0 128.5 46t50.5 120q0 71 -51.5 117.5t-127.5 46.5h-53q-77 0 -127.5 -45.5t-50.5 -118.5z" />
<glyph unicode="&#xe3;" horiz-adv-x="1193" d="M102 336v51q0 143 116 243.5t280 100.5q86 0 162.5 -30.5t130.5 -84.5v74q0 49 -15 87.5t-38.5 61.5t-55 38t-61.5 20t-60 4q-161 -8 -317 -129q-21 57 -44.5 126.5t-31.5 92.5q62 31 95 46t91.5 36.5t117.5 31t126 9.5q202 0 337.5 -129.5t135.5 -329.5v-655h-272 l-8 106q-117 -114 -293 -114q-164 0 -280 101.5t-116 242.5zM229 1192q9 87 28.5 145.5t48.5 87.5t58.5 40.5t67.5 11.5q78 0 135 -37l109 -68q30 -18 57 -18q64 0 72 110h184q-16 -159 -68 -221.5t-135 -62.5q-75 0 -135 37l-108 67q-31 19 -58 19q-32 0 -49.5 -25 t-21.5 -86h-185zM385 373q0 -75 50 -120.5t128 -45.5h53q78 0 128.5 46t50.5 120q0 71 -51.5 117.5t-127.5 46.5h-53q-77 0 -127.5 -45.5t-50.5 -118.5z" />
<glyph unicode="&#xe4;" horiz-adv-x="1189" d="M102 336v51q0 143 116 243.5t280 100.5q86 0 162.5 -30.5t130.5 -84.5v74q0 49 -15 87.5t-38.5 61.5t-55 38t-61.5 20t-60 4q-161 -8 -317 -129q-21 57 -44.5 126.5t-31.5 92.5q62 31 95 46t91.5 36.5t117.5 31t126 9.5q202 0 337.5 -129.5t135.5 -329.5v-655h-272 l-8 106q-117 -114 -293 -114q-164 0 -280 101.5t-116 242.5zM279 1341q0 62 33 94.5t91 32.5q57 0 91 -32t34 -95q0 -61 -32.5 -94t-92.5 -33q-59 0 -91.5 32.5t-32.5 94.5zM385 373q0 -75 50 -120.5t128 -45.5h53q78 0 128.5 46t50.5 120q0 71 -51.5 117.5t-127.5 46.5h-53 q-77 0 -127.5 -45.5t-50.5 -118.5zM684 1341q0 62 33.5 94.5t93.5 32.5q55 0 89 -32t34 -95q0 -61 -32.5 -94t-92.5 -33q-58 0 -91.5 32.5t-33.5 94.5z" />
<glyph unicode="&#xe5;" horiz-adv-x="1187" d="M102 336v51q0 143 116 243.5t280 100.5q86 0 162.5 -30.5t130.5 -84.5v74q0 49 -15 87.5t-38.5 61.5t-55 38t-61.5 20t-60 4q-161 -8 -317 -129q-21 57 -44.5 126.5t-31.5 92.5q62 31 95 46t91.5 36.5t117.5 31t126 9.5q202 0 337.5 -129.5t135.5 -329.5v-655h-272 l-8 106q-117 -114 -293 -114q-164 0 -280 101.5t-116 242.5zM332 1370q0 191 262 191q260 0 260 -189q0 -94 -62 -142t-198 -48q-135 0 -198.5 46.5t-63.5 141.5zM385 373q0 -75 50 -120.5t128 -45.5h53q78 0 128.5 46t50.5 120q0 71 -51.5 117.5t-127.5 46.5h-53 q-77 0 -127.5 -45.5t-50.5 -118.5zM500 1370q0 -86 92 -86q94 0 94 86q0 88 -94 88q-92 0 -92 -88z" />
<glyph unicode="&#xe6;" horiz-adv-x="1802" d="M104 350v17q0 139 108.5 232t287.5 93h32q74 0 143 -28t105 -70v37v8v2q0 94 -14 135q-23 52 -72 83.5t-108 31.5q-172 0 -346 -109q-20 80 -38 144.5t-26 97.5q70 28 106 40.5t115 27t166 14.5q214 0 344 -133q125 131 307 131h66q114 0 209 -46t151 -131t56 -192v-6 q0 -132 -91.5 -209.5t-269.5 -77.5h-106q-77 0 -133 -24t-56 -74q0 -74 95 -117q62 -29 155 -24.5t174 37.5q58 22 99 48t96 72q-2 -49 -5 -147.5t-3 -110.5q-52 -47 -149 -80.5t-167 -33.5h-143q-66 0 -145 25.5t-134 62.5q-75 1 -137.5 -13t-101.5 -30.5t-105 -30.5 t-147 -14q-65 0 -121.5 22t-101 65.5t-70 114t-25.5 160.5zM350 367q-8 -56 14 -101.5t80 -64.5q36 -13 81.5 -8t79 17.5t82.5 22.5t93 7v73q0 78 -56 131.5t-134 53.5h-64q-68 0 -117 -34t-59 -97zM1034 590q47 47 140 47h135q141 0 141 121q0 56 -43 90.5t-100 34.5h-82 q-91 0 -141 -59t-50 -142v-92z" />
<glyph unicode="&#xe7;" horiz-adv-x="1005" d="M104 453v192q0 190 136.5 325.5t328.5 135.5h17q105 0 206.5 -29t163.5 -71l-71 -224q-169 109 -293 109h-14q-93 0 -155.5 -68.5t-62.5 -160.5v-228q0 -91 61.5 -159t147.5 -68h17q36 0 81 14.5t84 35.5t72 42.5t53 36.5l19 14l78 -235q-77 -57 -186.5 -91t-200.5 -34 h-4l-19 -72q110 -30 149.5 -69t39.5 -113q0 -178 -224 -178q-99 0 -202 20l28 141q91 -26 166 -26q36 0 51 12.5t15 42.5q0 34 -25 46.5t-141 41.5l41 168q-155 35 -256 161t-101 288z" />
<glyph unicode="&#xe8;" horiz-adv-x="1187" d="M106 496q0 -221 135 -359.5t339 -138.5h61q102 0 220 37.5t179 87.5q-1 42 -1 124t-1 144q-73 -73 -182.5 -117.5t-237.5 -37.5q-94 6 -153 62t-59 132v31h413q144 0 213 69q34 34 43.5 70t9.5 92q0 125 -64.5 222.5t-172 149.5t-236.5 52q-240 0 -373 -141.5 t-133 -370.5v-108zM231 1501h299l168 -287v-22h-221zM406 653v27q0 90 56.5 147.5t137.5 57.5q84 0 135 -49t51 -125q0 -27 -18 -42.5t-70 -15.5h-292z" />
<glyph unicode="&#xe9;" horiz-adv-x="1183" d="M106 496q0 -221 135 -359.5t339 -138.5h61q102 0 220 37.5t179 87.5q-1 42 -1 124t-1 144q-73 -73 -182.5 -117.5t-237.5 -37.5q-94 6 -153 62t-59 132v31h413q144 0 213 69q34 34 43.5 70t9.5 92q0 125 -64.5 222.5t-172 149.5t-236.5 52q-240 0 -373 -141.5 t-133 -370.5v-108zM406 653v27q0 90 56.5 147.5t137.5 57.5q84 0 135 -49t51 -125q0 -27 -18 -42.5t-70 -15.5h-292zM469 1192v22l166 287h301l-248 -309h-219z" />
<glyph unicode="&#xea;" horiz-adv-x="1187" d="M106 496q0 -221 135 -359.5t339 -138.5h61q102 0 220 37.5t179 87.5q-1 42 -1 124t-1 144q-73 -73 -182.5 -117.5t-237.5 -37.5q-94 6 -153 62t-59 132v31h413q144 0 213 69q34 34 43.5 70t9.5 92q0 125 -64.5 222.5t-172 149.5t-236.5 52q-240 0 -373 -141.5 t-133 -370.5v-108zM272 1192v20l162 289h350l162 -289v-20h-215l-125 223l-123 -223h-211zM406 653v27q0 90 56.5 147.5t137.5 57.5q84 0 135 -49t51 -125q0 -27 -18 -42.5t-70 -15.5h-292z" />
<glyph unicode="&#xeb;" horiz-adv-x="1187" d="M106 496q0 -221 135 -359.5t339 -138.5h61q102 0 220 37.5t179 87.5q-1 42 -1 124t-1 144q-73 -73 -182.5 -117.5t-237.5 -37.5q-94 6 -153 62t-59 132v31h413q144 0 213 69q34 34 43.5 70t9.5 92q0 125 -64.5 222.5t-172 149.5t-236.5 52q-240 0 -373 -141.5 t-133 -370.5v-108zM272 1341q0 62 33.5 94.5t91.5 32.5q57 0 91 -32t34 -95q0 -61 -32.5 -94t-92.5 -33q-59 0 -92 32.5t-33 94.5zM406 653v27q0 90 56.5 147.5t137.5 57.5q84 0 135 -49t51 -125q0 -27 -18 -42.5t-70 -15.5h-292zM678 1341q0 62 33.5 94.5t93.5 32.5 q55 0 89 -32t34 -95q0 -61 -32.5 -94t-92.5 -33q-58 0 -91.5 32.5t-33.5 94.5z" />
<glyph unicode="&#xec;" horiz-adv-x="602" d="M-43 1501h299l168 -287v-22h-221zM176 0h250v1120l-250 -35v-1085z" />
<glyph unicode="&#xed;" horiz-adv-x="602" d="M176 0h250v1116l-250 -35v-1081zM176 1192v22l166 287h301l-248 -309h-219z" />
<glyph unicode="&#xee;" horiz-adv-x="602" d="M0 1192v20l143 289h314l143 -289v-20h-192l-111 223l-109 -223h-188zM176 0h250v1120l-250 -35v-1085z" />
<glyph unicode="&#xef;" horiz-adv-x="602" d="M6 1341q0 62 30.5 94.5t84.5 32.5q53 0 85 -32t32 -95q0 -62 -30 -94.5t-87 -32.5q-55 0 -85 32.5t-30 94.5zM176 0h250v1120l-250 -35v-1085zM362 1341q0 62 31 94.5t86 32.5q53 0 85 -32t32 -95q0 -62 -30 -94.5t-87 -32.5q-55 0 -86 32.5t-31 94.5z" />
<glyph unicode="&#xf0;" horiz-adv-x="1173" d="M104 522q0 535 478 535q53 0 123 -17q-46 95 -123 211l-148 -84l-76 109l146 84q-36 49 -103 135l238 98q55 -70 82 -108l133 76l76 -109l-133 -78q145 -218 208.5 -406t63.5 -378q0 -302 -115.5 -456t-369.5 -154q-229 0 -354.5 138.5t-125.5 403.5zM371 524 q0 -186 49.5 -265t165.5 -79q125 0 172 89.5t47 314.5q0 126 -31 247q-95 25 -176 25q-79 0 -126.5 -28t-74 -102t-26.5 -202z" />
<glyph unicode="&#xf1;" horiz-adv-x="1300" d="M176 0v1067l301 41v-182q52 80 138 128t186 48q157 0 268 -107t111 -258v-737h-299v639q0 85 -59 145t-142 60t-142 -59t-61 -142v-4v-639h-301zM315 1192q9 87 28.5 145.5t48.5 87.5t58.5 40.5t67.5 11.5q78 0 135 -37l109 -68q30 -18 57 -18q64 0 72 110h184 q-16 -159 -68 -221.5t-135 -62.5q-75 0 -135 37l-108 67q-31 19 -58 19q-32 0 -49.5 -25t-21.5 -86h-185z" />
<glyph unicode="&#xf2;" horiz-adv-x="1236" d="M102 510q0 -106 36 -200t102 -165t165.5 -112t219.5 -41q156 0 275.5 70.5t181 187t61.5 258.5v88q0 102 -36.5 195.5t-102.5 165.5t-166.5 114.5t-219.5 42.5q-117 0 -216 -43t-163.5 -114.5t-100.5 -164.5t-36 -194v-88zM258 1501h299l168 -287v-22h-221zM403 485v133 q0 117 57 189t158 72q105 0 164.5 -72t59.5 -189v-133q0 -124 -56 -191t-161 -67q-108 0 -165 66t-57 192z" />
<glyph unicode="&#xf3;" horiz-adv-x="1236" d="M102 510q0 -106 36 -200t102 -165t165.5 -112t219.5 -41q156 0 275.5 70.5t181 187t61.5 258.5v88q0 102 -36.5 195.5t-102.5 165.5t-166.5 114.5t-219.5 42.5q-117 0 -216 -43t-163.5 -114.5t-100.5 -164.5t-36 -194v-88zM403 485v133q0 117 57 189t158 72 q105 0 164.5 -72t59.5 -189v-133q0 -124 -56 -191t-161 -67q-108 0 -165 66t-57 192zM500 1192v22l166 287h301l-248 -309h-219z" />
<glyph unicode="&#xf4;" horiz-adv-x="1241" d="M102 510q0 -106 36 -200t102 -165t165.5 -112t219.5 -41q156 0 275.5 70.5t181 187t61.5 258.5v88q0 102 -36.5 195.5t-102.5 165.5t-166.5 114.5t-219.5 42.5q-117 0 -216 -43t-163.5 -114.5t-100.5 -164.5t-36 -194v-88zM287 1192v20l162 289h350l162 -289v-20h-216 l-124 223l-123 -223h-211zM403 485v133q0 117 57 189t158 72q105 0 164.5 -72t59.5 -189v-133q0 -124 -56 -191t-161 -67q-108 0 -165 66t-57 192z" />
<glyph unicode="&#xf5;" horiz-adv-x="1241" d="M102 510q0 -106 36 -200t102 -165t165.5 -112t219.5 -41q156 0 275.5 70.5t181 187t61.5 258.5v88q0 102 -36.5 195.5t-102.5 165.5t-166.5 114.5t-219.5 42.5q-117 0 -216 -43t-163.5 -114.5t-100.5 -164.5t-36 -194v-88zM236 1192q9 87 28.5 145.5t48 87.5t58 40.5 t67.5 11.5q78 0 135 -37l109 -68q30 -18 57 -18q64 0 72 110h184q-16 -159 -67.5 -221.5t-134.5 -62.5q-76 0 -136 37l-108 67q-31 19 -57 19q-32 0 -50 -25t-22 -86h-184zM403 485v133q0 117 57 189t158 72q105 0 164.5 -72t59.5 -189v-133q0 -124 -56 -191t-161 -67 q-108 0 -165 66t-57 192z" />
<glyph unicode="&#xf6;" horiz-adv-x="1241" d="M102 510q0 -106 36 -200t102 -165t165.5 -112t219.5 -41q156 0 275.5 70.5t181 187t61.5 258.5v88q0 102 -36.5 195.5t-102.5 165.5t-166.5 114.5t-219.5 42.5q-117 0 -216 -43t-163.5 -114.5t-100.5 -164.5t-36 -194v-88zM295 1341q0 62 33.5 94.5t91.5 32.5 q57 0 91 -32t34 -95q0 -61 -32.5 -94t-92.5 -33q-59 0 -92 32.5t-33 94.5zM403 485v133q0 117 57 189t158 72q105 0 164.5 -72t59.5 -189v-133q0 -124 -56 -191t-161 -67q-108 0 -165 66t-57 192zM700 1341q0 62 33.5 94.5t93.5 32.5q55 0 89 -32t34 -95q0 -61 -32.5 -94 t-92.5 -33q-58 0 -91.5 32.5t-33.5 94.5z" />
<glyph unicode="&#xf7;" horiz-adv-x="1214" d="M100 500v96h1020v-96h-1020zM449 166q0 71 43.5 110t115.5 39q71 0 115.5 -38t44.5 -111q0 -71 -43 -111.5t-119 -40.5q-71 0 -114 40.5t-43 111.5zM449 928q0 69 43.5 109t115.5 40q71 0 115.5 -38.5t44.5 -110.5q0 -71 -43 -112.5t-119 -41.5q-72 0 -114.5 41 t-42.5 113z" />
<glyph unicode="&#xf8;" horiz-adv-x="1185" d="M104 444v197q0 194 136.5 328.5t324.5 134.5h49q119 0 234 -64l121 197h90l-148 -242q77 -65 121.5 -156.5t44.5 -197.5v-199q0 -128 -63.5 -235t-169.5 -167t-230 -60h-47q-127 0 -235 63l-119 -199h-90l147 242q-77 66 -121.5 159t-44.5 199zM354 457q0 -90 41 -164 l338 559q-52 43 -119 43h-49q-87 0 -149 -77.5t-62 -207.5v-153zM449 231q52 -43 118 -43h47q89 0 151 73t62 196v153q0 106 -43 178z" />
<glyph unicode="&#xf9;" horiz-adv-x="1339" d="M174 365v737h299v-639q0 -85 59 -145t142 -60t142 59t61 142v4v639h301v-1096h-285l-16 170q-52 -80 -138 -128t-186 -48q-157 0 -268 107t-111 258zM311 1501h299l168 -287v-22h-221z" />
<glyph unicode="&#xfa;" horiz-adv-x="1343" d="M174 365v737h299v-639q0 -85 59 -145t142 -60t142 59t61 142v4v639h301v-1102h-285l-16 176q-52 -80 -138 -128t-186 -48q-157 0 -268 107t-111 258zM543 1192v22l166 287h301l-248 -309h-219z" />
<glyph unicode="&#xfb;" horiz-adv-x="1339" d="M174 365v737h299v-639q0 -85 59 -145t142 -60t142 59t61 142v4v639h301v-1096h-285l-16 170q-52 -80 -138 -128t-186 -48q-157 0 -268 107t-111 258zM330 1192v20l162 289h350l162 -289v-20h-216l-124 223l-123 -223h-211z" />
<glyph unicode="&#xfc;" horiz-adv-x="1329" d="M174 365v737h299v-639q0 -85 59 -145t142 -60t142 59t61 142v4v639h301v-1096h-285l-16 170q-52 -80 -138 -128t-186 -48q-157 0 -268 107t-111 258zM354 1341q0 62 33.5 94.5t91.5 32.5q57 0 91 -32t34 -95q0 -61 -32.5 -94t-92.5 -33q-59 0 -92 32.5t-33 94.5z M760 1341q0 62 33.5 94.5t93.5 32.5q55 0 89 -32t34 -95q0 -61 -32.5 -94t-92.5 -33q-58 0 -91.5 32.5t-33.5 94.5z" />
<glyph unicode="&#xfd;" horiz-adv-x="1099" d="M31 1106h319q28 -84 187 -617q7 -24 14.5 -65.5t11.5 -70.5l4 -29q11 112 25 165q20 78 86 311.5t90 303.5h311l-407 -1235q-47 -139 -131.5 -202.5t-221.5 -63.5q-101 0 -190 30l23 250q9 -2 32.5 -9.5t38.5 -11.5t41 -6.5t53 -0.5q31 2 55.5 36t51.5 119zM442 1192v22 l166 287h301l-247 -309h-220z" />
<glyph unicode="&#xfe;" horiz-adv-x="1206" d="M174 -449v2010l248 30v-608q37 49 99.5 83t150.5 34q189 0 312.5 -134.5t123.5 -347.5v-178q0 -67 -9 -126t-32.5 -118t-60 -102.5t-95.5 -74t-135 -37.5q-58 -5 -107.5 11t-90.5 33t-76 15q-37 -3 -58.5 -28.5t-21.5 -65.5v-322q-225 -67 -248 -74zM424 203q7 5 18.5 12 t45 17.5t63.5 7.5q29 -2 94 -26.5t100 -18.5q36 6 60 23.5t35.5 46t15.5 57t4 65.5v275q0 100 -56.5 160.5t-150.5 62.5q-112 1 -170.5 -60.5t-58.5 -167.5v-454z" />
<glyph unicode="&#xff;" horiz-adv-x="1087" d="M18 1106h320q20 -59 186 -617q7 -24 15 -65.5t12 -70.5l4 -29q11 112 25 165q20 78 86 311.5t90 303.5h311l-408 -1235q-47 -139 -131 -202.5t-221 -63.5q-101 0 -190 30l22 250q9 -2 33 -9.5t38.5 -11.5t41 -6.5t53.5 -0.5q31 2 55.5 36t51.5 119zM229 1341 q0 62 33.5 94.5t91.5 32.5q57 0 91 -32t34 -95q0 -61 -32.5 -94t-92.5 -33q-59 0 -92 32.5t-33 94.5zM635 1341q0 62 33.5 94.5t93.5 32.5q55 0 89 -32t34 -95q0 -61 -32.5 -94t-92.5 -33q-58 0 -91.5 32.5t-33.5 94.5z" />
<glyph unicode="&#x152;" horiz-adv-x="2062" d="M121 688v158q0 147 37.5 273t109 223t186 152.5t259.5 55.5h57q184 0 326 -96v82h889v-238h-631v-303q0 -59 23.5 -79.5t80.5 -20.5h451v-227h-482q-54 0 -67 -52q-3 -30 -6 -57v-321h610l29 -240h-897v82q-142 -96 -328 -96h-55q-143 0 -257 55.5t-186.5 152t-110.5 223 t-38 273.5zM397 705q0 -78 11 -146t37 -130t65.5 -106t100 -70t137.5 -26t137 26t98.5 70t63.5 107t35 131t10 148v116q0 104 -19.5 191.5t-59.5 156.5t-107 107.5t-156 38.5q-84 0 -147 -26.5t-102 -70.5t-63 -109t-33 -134t-8 -154v-120z" />
<glyph unicode="&#x153;" horiz-adv-x="1822" d="M102 451v188q0 194 136.5 328.5t324.5 134.5h49q96 0 182.5 -36.5t149.5 -102.5q126 139 316 139h65q175 0 295.5 -104t120.5 -267v-6q0 -131 -92.5 -209t-268.5 -78h-106q-49 0 -89.5 -8.5t-70 -31t-29.5 -56.5q0 -72 93 -119q63 -29 156.5 -24.5t174.5 37.5 q105 45 195 120q-2 -50 -5 -149.5t-3 -108.5q-54 -46 -151 -80t-167 -34h-141q-186 0 -301 131q-141 -131 -324 -131h-47q-191 0 -327 135.5t-136 331.5zM352 463q0 -118 63 -194t150 -76h47q89 0 151 73.5t62 196.5v145q0 133 -62.5 210t-150.5 77h-49q-87 0 -149 -78.5 t-62 -208.5v-145zM1079 586q46 49 140 49h135q70 0 105.5 31t35.5 88q0 56 -44 91.5t-101 35.5h-80q-91 0 -141 -59.5t-50 -141.5v-94z" />
<glyph unicode="&#x178;" horiz-adv-x="1314" d="M12 1538h330q65 -144 268 -561q41 -85 45 -201q4 116 45 201q216 443 269 561h329q-427 -838 -452 -891q-37 -73 -37 -178v-469h-307v469q0 105 -37 178q-46 96 -122.5 246.5t-180.5 352t-150 292.5zM340 1743q0 55 31.5 82.5t89.5 27.5q54 0 87.5 -27t33.5 -83 q0 -55 -32 -84t-91 -29q-57 0 -88 28.5t-31 84.5zM733 1743q0 54 33 82t90 28q55 0 87 -27t32 -83q0 -55 -31 -84t-88 -29q-58 0 -90.5 28.5t-32.5 84.5z" />
<glyph unicode="&#x2c6;" d="M174 1233v20l162 289h350l162 -289v-20h-215l-125 223l-123 -223h-211z" />
<glyph unicode="&#x2dc;" d="M131 1233q9 87 28.5 145.5t48.5 87.5t58.5 40.5t67.5 11.5q78 0 135 -37l109 -68q30 -18 57 -18q64 0 72 110h184q-16 -159 -68 -221.5t-135 -62.5q-77 0 -135 36l-109 68q-30 18 -57 18q-32 0 -50 -25t-22 -85h-184z" />
<glyph unicode="&#x2000;" horiz-adv-x="981" />
<glyph unicode="&#x2001;" horiz-adv-x="1962" />
<glyph unicode="&#x2002;" horiz-adv-x="981" />
<glyph unicode="&#x2003;" horiz-adv-x="1962" />
<glyph unicode="&#x2004;" horiz-adv-x="654" />
<glyph unicode="&#x2005;" horiz-adv-x="490" />
<glyph unicode="&#x2006;" horiz-adv-x="327" />
<glyph unicode="&#x2007;" horiz-adv-x="327" />
<glyph unicode="&#x2008;" horiz-adv-x="245" />
<glyph unicode="&#x2009;" horiz-adv-x="392" />
<glyph unicode="&#x200a;" horiz-adv-x="109" />
<glyph unicode="&#x2010;" horiz-adv-x="512" d="M47 440v207h418v-207h-418z" />
<glyph unicode="&#x2011;" horiz-adv-x="512" d="M47 440v207h418v-207h-418z" />
<glyph unicode="&#x2012;" horiz-adv-x="512" d="M47 440v207h418v-207h-418z" />
<glyph unicode="&#x2013;" d="M66 440v207h892v-207h-892z" />
<glyph unicode="&#x2014;" horiz-adv-x="2048" d="M66 440v207h1916v-207h-1916z" />
<glyph unicode="&#x2018;" horiz-adv-x="499" d="M59 1233q0 120 60 206.5t205 162.5l116 -152q-57 -28 -89 -47t-47.5 -39t-19 -35.5t-3.5 -44.5v-16h24q43 0 72 -28t29 -77q0 -64 -44.5 -101.5t-121.5 -37.5q-85 0 -133 52.5t-48 156.5z" />
<glyph unicode="&#x2019;" horiz-adv-x="499" d="M59 1171q58 28 89.5 47t47.5 39t19.5 35.5t3.5 44.5v17h-24q-43 0 -72 27.5t-29 76.5q0 64 44.5 101.5t121.5 37.5q85 0 132.5 -52t47.5 -156q0 -120 -60 -206.5t-204 -162.5z" />
<glyph unicode="&#x201a;" horiz-adv-x="499" d="M59 -141q58 28 89.5 47t47.5 39t19.5 35.5t3.5 44.5v16h-24q-43 0 -72 27.5t-29 76.5q0 65 45 102.5t121 37.5q84 0 132 -52.5t48 -156.5q0 -120 -60 -206.5t-204 -162.5z" />
<glyph unicode="&#x201c;" horiz-adv-x="911" d="M59 1229q0 120 60 206t205 162l116 -151q-57 -28 -89 -47t-47.5 -39t-19 -35.5t-3.5 -44.5v-16h24q43 0 72 -28t29 -77q0 -64 -44.5 -101.5t-121.5 -37.5q-85 0 -133 52.5t-48 156.5zM471 1229q0 120 59.5 206t204.5 162l117 -151q-58 -28 -89.5 -47t-47.5 -39 t-19.5 -35.5t-3.5 -44.5v-16h25q43 0 71.5 -28t28.5 -77q0 -64 -44.5 -101.5t-121.5 -37.5q-84 0 -132 52.5t-48 156.5z" />
<glyph unicode="&#x201d;" horiz-adv-x="913" d="M59 1171q58 28 89.5 47t47.5 39t19.5 35.5t3.5 44.5v17h-24q-43 0 -72 27.5t-29 76.5q0 64 44.5 101.5t121.5 37.5q85 0 132.5 -52t47.5 -156q0 -120 -60 -206.5t-204 -162.5zM473 1171q58 28 89.5 47t47.5 39t19.5 35.5t3.5 44.5v17h-25q-43 0 -71.5 27.5t-28.5 76.5 q0 64 44.5 101.5t121.5 37.5q85 0 132.5 -52t47.5 -156q0 -120 -60 -206.5t-204 -162.5z" />
<glyph unicode="&#x201e;" horiz-adv-x="913" d="M59 -141q58 28 89.5 47t47.5 39t19.5 35.5t3.5 44.5v16h-24q-43 0 -72 27.5t-29 76.5q0 65 45 102.5t121 37.5q84 0 132 -52.5t48 -156.5q0 -120 -60 -206.5t-204 -162.5zM473 -141q58 28 89.5 47t47.5 39t19.5 35.5t3.5 44.5v16h-25q-43 0 -71.5 27.5t-28.5 76.5 q0 65 45 102.5t121 37.5q84 0 132 -52.5t48 -156.5q0 -120 -60 -206.5t-204 -162.5z" />
<glyph unicode="&#x2022;" d="M242 272v539h540v-539h-540z" />
<glyph unicode="&#x2026;" horiz-adv-x="1533" d="M133 135q0 71 43 110.5t115 39.5t116 -38t44 -112q0 -71 -42 -111t-118 -40q-73 0 -115.5 40t-42.5 111zM608 135q0 71 43 110.5t115 39.5t116 -38t44 -112q0 -71 -42 -111t-118 -40q-73 0 -115.5 40t-42.5 111zM1083 135q0 71 43 110.5t115 39.5t116 -38t44 -112 q0 -71 -42 -111t-118 -40q-73 0 -115.5 40t-42.5 111z" />
<glyph unicode="&#x202f;" horiz-adv-x="392" />
<glyph unicode="&#x2039;" horiz-adv-x="665" d="M76 557l293 473h221l-248 -473l248 -473h-221z" />
<glyph unicode="&#x203a;" horiz-adv-x="665" d="M76 84l248 473l-248 473h221l293 -473l-293 -473h-221z" />
<glyph unicode="&#x205f;" horiz-adv-x="490" />
<glyph unicode="&#x20ac;" horiz-adv-x="1222" d="M123 549v123h110v180h-110v123h117q18 154 88 281.5t193 208t276 81.5h28q165 -6 312 -71l-84 -240q-129 70 -236 70h-14q-113 0 -193.5 -94t-103.5 -236h520l-33 -123h-493v-180h526l-33 -123h-489q16 -150 90.5 -239t208.5 -89h26q105 0 246 84l82 -233 q-180 -92 -321 -92h-39q-152 0 -275 79t-193.5 206.5t-88.5 283.5h-117z" />
<glyph unicode="&#x2122;" horiz-adv-x="1701" d="M82 1497h151q6 0 25 -0.5t27 -1.5t22.5 -3t26.5 -6t24 -11q48 22 117 22h166v-133h-178q-15 0 -23 -4q-4 -2 -6 -6q0 -2 -1 -6.5t-1 -6.5v-616h-151v614v13q-1 2 -4 4l-3 2q-6 6 -28 6h-162zM809 725v772h207l174 -541l174 535l2 6h209v-772h-154v567l-6 -57l-160 -467 h-131l-157 463l-6 59v-565h-152z" />
<glyph unicode="&#xe000;" horiz-adv-x="1105" d="M0 0v1106h1106v-1106h-1106z" />
<glyph unicode="&#xfb01;" horiz-adv-x="1482" d="M41 891v213h152v22q0 190 97.5 298t254.5 124q177 19 293 -30l-4 -238q-87 66 -203 45q-67 -12 -104.5 -55t-37.5 -137v-29h824h4h2l-2 -2v-1102h-301v891h-527v-9.5v-16.5v-28t0.5 -49.5t0.5 -75.5t0.5 -110.5t0.5 -150t0.5 -199t0.5 -252.5h-302l3 891h-152zM997 1411 q0 67 47.5 114.5t116.5 47.5h13q66 -1 112.5 -49t46.5 -113q0 -66 -46 -113t-111 -49h-15q-69 0 -116.5 47t-47.5 115z" />
<glyph unicode="&#xfb02;" horiz-adv-x="1513" d="M92 891v213h152v22q0 96 30.5 173.5t83.5 128t119.5 80.5t143.5 40q78 13 198.5 1.5t227.5 -50.5l290 49v-1548h-299v1282q-39 28 -155 41t-176 2q-166 -29 -166 -192v-29h260l-2 -213h-258q0 -43 2 -891h-301l2 891h-152z" />
</font>
</defs>
</svg>
